<svg xmlns="http://www.w3.org/2000/svg" width="1509" height="831" viewBox="0 0 1509 831" fill="none"><path d="M1476.3 0.159668H32.5078C14.8347 0.159668 0.507812 14.4866 0.507812 32.1597V798.599C0.507812 816.272 14.8347 830.599 32.5078 830.599H1303.97H1476.3C1493.98 830.599 1508.3 816.272 1508.3 798.599V32.1597C1508.3 14.4866 1493.98 0.159668 1476.3 0.159668Z" fill="#7309DD"></path><g clip-path="url(#clip0_507_1375)"><rect x="766.308" y="210.367" width="101.236" height="101.236" rx="27.097" fill="white"></rect><rect x="766.308" y="107.438" width="101.236" height="101.236" rx="27.097" fill="white"></rect><rect x="766.308" y="622.085" width="101.236" height="101.236" rx="27.097" fill="white"></rect><rect x="766.308" y="416.226" width="101.236" height="101.236" rx="27.097" fill="white"></rect><rect x="766.308" y="313.297" width="101.236" height="101.236" rx="27.097" fill="white"></rect><rect x="766.308" y="519.156" width="101.236" height="101.236" rx="27.097" fill="white"></rect><rect x="560.447" y="210.367" width="101.236" height="101.236" rx="27.097" fill="white"></rect><rect x="560.447" y="107.438" width="101.236" height="101.236" rx="27.097" fill="white"></rect><rect x="560.447" y="622.085" width="101.236" height="101.236" rx="27.097" fill="white"></rect><rect x="560.447" y="416.226" width="101.236" height="101.236" rx="27.097" fill="white"></rect><rect x="560.447" y="313.297" width="101.236" height="101.236" rx="27.097" fill="white"></rect><rect x="560.447" y="519.156" width="101.236" height="101.236" rx="27.097" fill="white"></rect><rect x="972.167" y="210.367" width="101.236" height="101.236" rx="27.097" fill="white"></rect><rect x="972.167" y="107.438" width="101.236" height="101.236" rx="27.097" fill="white"></rect><rect x="972.167" y="622.085" width="101.236" height="101.236" rx="27.097" fill="white"></rect><rect x="972.167" y="416.226" width="101.236" height="101.236" rx="27.097" fill="white"></rect><rect x="972.167" y="313.297" width="101.236" height="101.236" rx="27.097" fill="white"></rect><rect x="972.167" y="519.156" width="101.236" height="101.236" rx="27.097" fill="white"></rect><rect x="457.514" y="210.367" width="101.236" height="101.236" rx="27.097" fill="white"></rect><rect x="457.514" y="107.438" width="101.236" height="101.236" rx="27.097" fill="white"></rect><rect x="457.514" y="622.085" width="101.236" height="101.236" rx="27.097" fill="white"></rect><rect x="354.586" y="210.367" width="101.236" height="101.236" rx="27.097" fill="white"></rect><rect x="354.586" y="107.438" width="101.236" height="101.236" rx="27.097" fill="white"></rect><rect x="354.586" y="622.085" width="101.236" height="101.236" rx="27.097" fill="white"></rect><rect x="1075.09" y="210.367" width="101.236" height="101.236" rx="27.097" fill="white"></rect><rect x="1075.09" y="107.438" width="101.236" height="101.236" rx="27.097" fill="white"></rect><rect x="1075.09" y="622.085" width="101.236" height="101.236" rx="27.097" fill="white"></rect><rect x="457.514" y="416.226" width="101.236" height="101.236" rx="27.097" fill="white"></rect><rect x="354.586" y="416.226" width="101.236" height="101.236" rx="27.097" fill="white"></rect><rect x="1075.09" y="416.226" width="101.236" height="101.236" rx="27.097" fill="white"></rect><rect x="457.514" y="313.297" width="101.236" height="101.236" rx="27.097" fill="white"></rect><rect x="354.586" y="313.297" width="101.236" height="101.236" rx="27.097" fill="white"></rect><rect x="1075.09" y="313.297" width="101.236" height="101.236" rx="27.097" fill="white"></rect><rect x="457.514" y="519.156" width="101.236" height="101.236" rx="27.097" fill="white"></rect><rect x="354.586" y="519.156" width="101.236" height="101.236" rx="27.097" fill="white"></rect><rect x="1075.09" y="519.156" width="101.236" height="101.236" rx="27.097" fill="white"></rect><rect x="869.238" y="210.367" width="101.236" height="101.236" rx="27.097" fill="white"></rect><rect x="869.238" y="107.438" width="101.236" height="101.236" rx="27.097" fill="white"></rect><rect x="869.238" y="622.085" width="101.236" height="101.236" rx="27.097" fill="white"></rect><rect x="869.238" y="416.226" width="101.236" height="101.236" rx="27.097" fill="white"></rect><rect x="869.238" y="313.297" width="101.236" height="101.236" rx="27.097" fill="white"></rect><rect x="869.238" y="519.156" width="101.236" height="101.236" rx="27.097" fill="white"></rect><rect x="663.378" y="210.367" width="101.236" height="101.236" rx="27.097" fill="white"></rect><rect x="663.378" y="107.438" width="101.236" height="101.236" rx="27.097" fill="white"></rect><rect x="663.378" y="622.085" width="101.236" height="101.236" rx="27.097" fill="white"></rect><rect x="663.378" y="416.226" width="101.236" height="101.236" rx="27.097" fill="white"></rect><rect x="663.378" y="313.297" width="101.236" height="101.236" rx="27.097" fill="white"></rect><rect x="663.378" y="519.156" width="101.236" height="101.236" rx="27.097" fill="white"></rect><path d="M901.11 255.367L899.464 255.468C899.436 255.327 899.376 255.201 899.283 255.088C899.19 254.973 899.068 254.881 898.916 254.814C898.767 254.744 898.588 254.708 898.38 254.708C898.101 254.708 897.867 254.768 897.675 254.886C897.484 255.001 897.388 255.156 897.388 255.35C897.388 255.505 897.45 255.635 897.574 255.742C897.698 255.849 897.91 255.935 898.211 256L899.384 256.236C900.014 256.365 900.484 256.574 900.794 256.861C901.103 257.147 901.258 257.524 901.258 257.991C901.258 258.416 901.133 258.789 900.882 259.11C900.635 259.43 900.294 259.681 899.861 259.861C899.431 260.038 898.934 260.127 898.372 260.127C897.514 260.127 896.83 259.948 896.321 259.591C895.814 259.231 895.518 258.741 895.43 258.122L897.198 258.029C897.252 258.291 897.381 258.491 897.587 258.629C897.792 258.764 898.055 258.831 898.376 258.831C898.691 258.831 898.944 258.771 899.135 258.65C899.329 258.526 899.428 258.367 899.431 258.173C899.428 258.01 899.359 257.876 899.224 257.772C899.089 257.665 898.881 257.584 898.599 257.527L897.477 257.304C896.844 257.177 896.373 256.958 896.063 256.645C895.757 256.333 895.603 255.935 895.603 255.451C895.603 255.035 895.716 254.676 895.941 254.375C896.169 254.074 896.488 253.842 896.899 253.679C897.312 253.516 897.796 253.434 898.35 253.434C899.169 253.434 899.813 253.607 900.283 253.953C900.756 254.299 901.031 254.77 901.11 255.367ZM905.318 260.127C904.654 260.127 904.083 259.986 903.605 259.705C903.13 259.42 902.764 259.027 902.508 258.523C902.255 258.02 902.128 257.44 902.128 256.785C902.128 256.121 902.256 255.538 902.512 255.038C902.771 254.534 903.138 254.142 903.614 253.86C904.089 253.576 904.654 253.434 905.31 253.434C905.875 253.434 906.37 253.537 906.795 253.742C907.22 253.948 907.556 254.236 907.804 254.607C908.051 254.979 908.188 255.415 908.213 255.915H906.517C906.469 255.592 906.342 255.332 906.137 255.135C905.934 254.935 905.669 254.835 905.339 254.835C905.061 254.835 904.818 254.911 904.609 255.063C904.404 255.212 904.244 255.43 904.128 255.717C904.013 256.004 903.955 256.351 903.955 256.759C903.955 257.173 904.012 257.524 904.124 257.814C904.239 258.104 904.401 258.325 904.609 258.477C904.818 258.629 905.061 258.705 905.339 258.705C905.545 258.705 905.729 258.662 905.892 258.578C906.058 258.494 906.195 258.371 906.301 258.211C906.411 258.048 906.483 257.852 906.517 257.624H908.213C908.185 258.119 908.05 258.555 907.808 258.932C907.569 259.307 907.238 259.599 906.816 259.81C906.394 260.021 905.895 260.127 905.318 260.127ZM911.212 260.122C910.799 260.122 910.43 260.051 910.107 259.907C909.783 259.761 909.527 259.546 909.339 259.262C909.153 258.975 909.06 258.617 909.06 258.19C909.06 257.83 909.126 257.527 909.258 257.282C909.391 257.038 909.571 256.841 909.799 256.692C910.026 256.543 910.285 256.43 910.575 256.354C910.868 256.278 911.174 256.225 911.495 256.194C911.872 256.154 912.176 256.118 912.406 256.084C912.637 256.048 912.804 255.994 912.909 255.924C913.013 255.853 913.065 255.749 913.065 255.611V255.586C913.065 255.319 912.98 255.112 912.811 254.966C912.645 254.82 912.409 254.746 912.103 254.746C911.779 254.746 911.522 254.818 911.33 254.962C911.139 255.102 911.012 255.28 910.951 255.493L909.288 255.358C909.372 254.964 909.538 254.624 909.786 254.337C910.033 254.047 910.353 253.825 910.744 253.67C911.138 253.513 911.593 253.434 912.111 253.434C912.471 253.434 912.816 253.476 913.145 253.561C913.477 253.645 913.771 253.776 914.027 253.953C914.286 254.13 914.49 254.358 914.639 254.637C914.788 254.912 914.862 255.243 914.862 255.628V260H913.157V259.101H913.107C913.003 259.304 912.864 259.482 912.689 259.637C912.515 259.789 912.305 259.909 912.06 259.996C911.816 260.08 911.533 260.122 911.212 260.122ZM911.727 258.882C911.991 258.882 912.225 258.83 912.427 258.726C912.63 258.619 912.789 258.475 912.904 258.295C913.02 258.115 913.077 257.911 913.077 257.683V256.996C913.021 257.032 912.944 257.066 912.845 257.097C912.75 257.125 912.641 257.152 912.52 257.177C912.399 257.2 912.278 257.221 912.157 257.24C912.036 257.257 911.927 257.273 911.828 257.287C911.617 257.318 911.433 257.367 911.275 257.434C911.118 257.502 910.996 257.593 910.908 257.709C910.821 257.821 910.778 257.962 910.778 258.131C910.778 258.375 910.866 258.562 911.043 258.692C911.223 258.818 911.451 258.882 911.727 258.882ZM918.054 251.358V260H916.257V251.358H918.054ZM922.448 260.127C921.782 260.127 921.208 259.992 920.727 259.721C920.248 259.449 919.88 259.063 919.621 258.565C919.362 258.065 919.233 257.472 919.233 256.789C919.233 256.122 919.362 255.537 919.621 255.033C919.88 254.53 920.244 254.137 920.714 253.856C921.187 253.575 921.741 253.434 922.377 253.434C922.804 253.434 923.202 253.503 923.571 253.641C923.942 253.776 924.266 253.98 924.541 254.253C924.82 254.526 925.036 254.869 925.191 255.282C925.346 255.693 925.423 256.174 925.423 256.725V257.219H919.95V256.105H923.731C923.731 255.846 923.675 255.617 923.562 255.417C923.45 255.218 923.294 255.062 923.094 254.949C922.897 254.834 922.668 254.776 922.406 254.776C922.133 254.776 921.891 254.839 921.68 254.966C921.472 255.09 921.309 255.257 921.191 255.468C921.073 255.676 921.012 255.908 921.009 256.164V257.223C921.009 257.544 921.068 257.821 921.187 258.055C921.308 258.288 921.478 258.468 921.697 258.595C921.917 258.721 922.177 258.785 922.478 258.785C922.678 258.785 922.86 258.757 923.026 258.7C923.192 258.644 923.334 258.56 923.453 258.447C923.571 258.335 923.661 258.197 923.723 258.034L925.385 258.143C925.301 258.543 925.128 258.892 924.866 259.19C924.607 259.485 924.273 259.716 923.862 259.882C923.454 260.045 922.983 260.127 922.448 260.127ZM896.046 272V263.358H899.068C899.67 263.358 900.166 263.462 900.557 263.67C900.948 263.876 901.24 264.153 901.431 264.502C901.622 264.848 901.718 265.232 901.718 265.654C901.718 266.025 901.652 266.332 901.519 266.573C901.39 266.815 901.218 267.007 901.005 267.147C900.794 267.288 900.564 267.392 900.317 267.46V267.544C900.581 267.561 900.847 267.654 901.114 267.822C901.382 267.991 901.605 268.233 901.785 268.548C901.965 268.863 902.055 269.249 902.055 269.704C902.055 270.138 901.957 270.527 901.76 270.873C901.563 271.219 901.252 271.494 900.827 271.696C900.403 271.899 899.85 272 899.169 272H896.046ZM897.093 271.072H899.169C899.853 271.072 900.338 270.939 900.625 270.675C900.915 270.408 901.06 270.084 901.06 269.704C901.06 269.412 900.985 269.142 900.836 268.894C900.687 268.644 900.474 268.444 900.199 268.295C899.923 268.143 899.597 268.067 899.22 268.067H897.093V271.072ZM897.093 267.156H899.034C899.349 267.156 899.633 267.094 899.886 266.97C900.142 266.846 900.345 266.672 900.494 266.447C900.646 266.222 900.722 265.957 900.722 265.654C900.722 265.274 900.59 264.952 900.325 264.687C900.061 264.42 899.642 264.286 899.068 264.286H897.093V267.156ZM903.775 272V263.358H906.695C907.37 263.358 907.924 263.473 908.358 263.704C908.791 263.932 909.111 264.246 909.32 264.645C909.528 265.044 909.632 265.499 909.632 266.008C909.632 266.517 909.528 266.969 909.32 267.363C909.111 267.756 908.792 268.066 908.362 268.291C907.931 268.513 907.381 268.624 906.712 268.624H904.349V267.679H906.678C907.139 267.679 907.511 267.611 907.792 267.476C908.076 267.341 908.282 267.15 908.408 266.903C908.538 266.652 908.602 266.354 908.602 266.008C908.602 265.662 908.538 265.36 908.408 265.101C908.279 264.842 908.072 264.642 907.788 264.502C907.504 264.358 907.128 264.286 906.661 264.286H904.821V272H903.775ZM907.843 268.118L909.969 272H908.754L906.661 268.118H907.843ZM911.73 272H910.633L913.806 263.358H914.887L918.06 272H916.963L914.38 264.725H914.313L911.73 272ZM912.135 268.624H916.558V269.553H912.135V268.624ZM926.259 263.358V272H925.246L920.537 265.215H920.452V272H919.406V263.358H920.419L925.145 270.16H925.229V263.358H926.259ZM931.02 272H928.353V263.358H931.138C931.976 263.358 932.693 263.531 933.29 263.877C933.886 264.22 934.343 264.714 934.661 265.358C934.979 266 935.138 266.768 935.138 267.662C935.138 268.562 934.978 269.337 934.657 269.987C934.336 270.634 933.869 271.132 933.256 271.481C932.643 271.827 931.897 272 931.02 272ZM929.399 271.072H930.952C931.667 271.072 932.259 270.934 932.729 270.658C933.198 270.382 933.549 269.99 933.779 269.481C934.01 268.972 934.125 268.365 934.125 267.662C934.125 266.964 934.011 266.364 933.784 265.86C933.556 265.354 933.215 264.966 932.762 264.696C932.309 264.423 931.745 264.286 931.07 264.286H929.399V271.072Z" fill="#212121"></path><path d="M1109.11 359.367L1107.46 359.468C1107.44 359.327 1107.38 359.201 1107.28 359.088C1107.19 358.973 1107.07 358.881 1106.92 358.814C1106.77 358.744 1106.59 358.708 1106.38 358.708C1106.1 358.708 1105.87 358.768 1105.68 358.886C1105.48 359.001 1105.39 359.156 1105.39 359.35C1105.39 359.505 1105.45 359.635 1105.57 359.742C1105.7 359.849 1105.91 359.935 1106.21 360L1107.38 360.236C1108.01 360.365 1108.48 360.574 1108.79 360.861C1109.1 361.147 1109.26 361.524 1109.26 361.991C1109.26 362.416 1109.13 362.789 1108.88 363.11C1108.63 363.43 1108.29 363.681 1107.86 363.861C1107.43 364.038 1106.93 364.127 1106.37 364.127C1105.51 364.127 1104.83 363.948 1104.32 363.591C1103.81 363.231 1103.52 362.741 1103.43 362.122L1105.2 362.029C1105.25 362.291 1105.38 362.491 1105.59 362.629C1105.79 362.764 1106.06 362.831 1106.38 362.831C1106.69 362.831 1106.94 362.771 1107.14 362.65C1107.33 362.526 1107.43 362.367 1107.43 362.173C1107.43 362.01 1107.36 361.876 1107.22 361.772C1107.09 361.665 1106.88 361.584 1106.6 361.527L1105.48 361.304C1104.84 361.177 1104.37 360.958 1104.06 360.645C1103.76 360.333 1103.6 359.935 1103.6 359.451C1103.6 359.035 1103.72 358.676 1103.94 358.375C1104.17 358.074 1104.49 357.842 1104.9 357.679C1105.31 357.516 1105.8 357.434 1106.35 357.434C1107.17 357.434 1107.81 357.607 1108.28 357.953C1108.76 358.299 1109.03 358.77 1109.11 359.367ZM1113.32 364.127C1112.65 364.127 1112.08 363.986 1111.61 363.705C1111.13 363.42 1110.76 363.027 1110.51 362.523C1110.25 362.02 1110.13 361.44 1110.13 360.785C1110.13 360.121 1110.26 359.538 1110.51 359.038C1110.77 358.534 1111.14 358.142 1111.61 357.86C1112.09 357.576 1112.65 357.434 1113.31 357.434C1113.88 357.434 1114.37 357.537 1114.8 357.742C1115.22 357.948 1115.56 358.236 1115.8 358.607C1116.05 358.979 1116.19 359.415 1116.21 359.915H1114.52C1114.47 359.592 1114.34 359.332 1114.14 359.135C1113.93 358.935 1113.67 358.835 1113.34 358.835C1113.06 358.835 1112.82 358.911 1112.61 359.063C1112.4 359.212 1112.24 359.43 1112.13 359.717C1112.01 360.004 1111.96 360.351 1111.96 360.759C1111.96 361.173 1112.01 361.524 1112.12 361.814C1112.24 362.104 1112.4 362.325 1112.61 362.477C1112.82 362.629 1113.06 362.705 1113.34 362.705C1113.54 362.705 1113.73 362.662 1113.89 362.578C1114.06 362.494 1114.19 362.371 1114.3 362.211C1114.41 362.048 1114.48 361.852 1114.52 361.624H1116.21C1116.18 362.119 1116.05 362.555 1115.81 362.932C1115.57 363.307 1115.24 363.599 1114.82 363.81C1114.39 364.021 1113.89 364.127 1113.32 364.127ZM1119.21 364.122C1118.8 364.122 1118.43 364.051 1118.11 363.907C1117.78 363.761 1117.53 363.546 1117.34 363.262C1117.15 362.975 1117.06 362.617 1117.06 362.19C1117.06 361.83 1117.13 361.527 1117.26 361.282C1117.39 361.038 1117.57 360.841 1117.8 360.692C1118.03 360.543 1118.29 360.43 1118.58 360.354C1118.87 360.278 1119.17 360.225 1119.49 360.194C1119.87 360.154 1120.18 360.118 1120.41 360.084C1120.64 360.048 1120.8 359.994 1120.91 359.924C1121.01 359.853 1121.06 359.749 1121.06 359.611V359.586C1121.06 359.319 1120.98 359.112 1120.81 358.966C1120.65 358.82 1120.41 358.746 1120.1 358.746C1119.78 358.746 1119.52 358.818 1119.33 358.962C1119.14 359.102 1119.01 359.28 1118.95 359.493L1117.29 359.358C1117.37 358.964 1117.54 358.624 1117.79 358.337C1118.03 358.047 1118.35 357.825 1118.74 357.67C1119.14 357.513 1119.59 357.434 1120.11 357.434C1120.47 357.434 1120.82 357.476 1121.14 357.561C1121.48 357.645 1121.77 357.776 1122.03 357.953C1122.29 358.13 1122.49 358.358 1122.64 358.637C1122.79 358.912 1122.86 359.243 1122.86 359.628V364H1121.16V363.101H1121.11C1121 363.304 1120.86 363.482 1120.69 363.637C1120.51 363.789 1120.31 363.909 1120.06 363.996C1119.82 364.08 1119.53 364.122 1119.21 364.122ZM1119.73 362.882C1119.99 362.882 1120.22 362.83 1120.43 362.726C1120.63 362.619 1120.79 362.475 1120.9 362.295C1121.02 362.115 1121.08 361.911 1121.08 361.683V360.996C1121.02 361.032 1120.94 361.066 1120.85 361.097C1120.75 361.125 1120.64 361.152 1120.52 361.177C1120.4 361.2 1120.28 361.221 1120.16 361.24C1120.04 361.257 1119.93 361.273 1119.83 361.287C1119.62 361.318 1119.43 361.367 1119.28 361.434C1119.12 361.502 1119 361.593 1118.91 361.709C1118.82 361.821 1118.78 361.962 1118.78 362.131C1118.78 362.375 1118.87 362.562 1119.04 362.692C1119.22 362.818 1119.45 362.882 1119.73 362.882ZM1126.05 355.358V364H1124.26V355.358H1126.05ZM1130.45 364.127C1129.78 364.127 1129.21 363.992 1128.73 363.721C1128.25 363.449 1127.88 363.063 1127.62 362.565C1127.36 362.065 1127.23 361.472 1127.23 360.789C1127.23 360.122 1127.36 359.537 1127.62 359.033C1127.88 358.53 1128.24 358.137 1128.71 357.856C1129.19 357.575 1129.74 357.434 1130.38 357.434C1130.8 357.434 1131.2 357.503 1131.57 357.641C1131.94 357.776 1132.27 357.98 1132.54 358.253C1132.82 358.526 1133.04 358.869 1133.19 359.282C1133.35 359.693 1133.42 360.174 1133.42 360.725V361.219H1127.95V360.105H1131.73C1131.73 359.846 1131.67 359.617 1131.56 359.417C1131.45 359.218 1131.29 359.062 1131.09 358.949C1130.9 358.834 1130.67 358.776 1130.41 358.776C1130.13 358.776 1129.89 358.839 1129.68 358.966C1129.47 359.09 1129.31 359.257 1129.19 359.468C1129.07 359.676 1129.01 359.908 1129.01 360.164V361.223C1129.01 361.544 1129.07 361.821 1129.19 362.055C1129.31 362.288 1129.48 362.468 1129.7 362.595C1129.92 362.721 1130.18 362.785 1130.48 362.785C1130.68 362.785 1130.86 362.757 1131.03 362.7C1131.19 362.644 1131.33 362.56 1131.45 362.447C1131.57 362.335 1131.66 362.197 1131.72 362.034L1133.39 362.143C1133.3 362.543 1133.13 362.892 1132.87 363.19C1132.61 363.485 1132.27 363.716 1131.86 363.882C1131.45 364.045 1130.98 364.127 1130.45 364.127ZM1106.71 376H1104.05V367.358H1106.83C1107.67 367.358 1108.39 367.531 1108.98 367.877C1109.58 368.22 1110.04 368.714 1110.35 369.358C1110.67 370 1110.83 370.768 1110.83 371.662C1110.83 372.562 1110.67 373.337 1110.35 373.987C1110.03 374.634 1109.56 375.132 1108.95 375.481C1108.34 375.827 1107.59 376 1106.71 376ZM1105.09 375.072H1106.65C1107.36 375.072 1107.95 374.934 1108.42 374.658C1108.89 374.382 1109.24 373.99 1109.47 373.481C1109.7 372.972 1109.82 372.365 1109.82 371.662C1109.82 370.964 1109.71 370.364 1109.48 369.86C1109.25 369.354 1108.91 368.966 1108.46 368.696C1108 368.423 1107.44 368.286 1106.76 368.286H1105.09V375.072ZM1113.63 367.358V376H1112.59V367.358H1113.63ZM1121.64 370.059C1121.55 369.774 1121.42 369.52 1121.27 369.295C1121.12 369.067 1120.94 368.873 1120.74 368.713C1120.53 368.552 1120.3 368.43 1120.04 368.345C1119.77 368.261 1119.49 368.219 1119.18 368.219C1118.66 368.219 1118.2 368.351 1117.78 368.615C1117.36 368.88 1117.03 369.27 1116.78 369.784C1116.53 370.299 1116.41 370.931 1116.41 371.679C1116.41 372.427 1116.53 373.059 1116.78 373.574C1117.03 374.088 1117.37 374.478 1117.8 374.743C1118.23 375.007 1118.71 375.139 1119.24 375.139C1119.74 375.139 1120.17 375.034 1120.55 374.823C1120.93 374.609 1121.23 374.308 1121.44 373.92C1121.65 373.529 1121.76 373.069 1121.76 372.54L1122.08 372.607H1119.48V371.679H1122.77V372.607C1122.77 373.319 1122.62 373.938 1122.31 374.464C1122.01 374.99 1121.6 375.398 1121.07 375.688C1120.54 375.975 1119.93 376.118 1119.24 376.118C1118.48 376.118 1117.81 375.938 1117.23 375.578C1116.65 375.218 1116.2 374.706 1115.88 374.042C1115.55 373.378 1115.39 372.59 1115.39 371.679C1115.39 370.995 1115.49 370.381 1115.67 369.835C1115.85 369.286 1116.12 368.819 1116.45 368.434C1116.79 368.049 1117.19 367.753 1117.65 367.548C1118.11 367.343 1118.62 367.24 1119.18 367.24C1119.63 367.24 1120.06 367.309 1120.45 367.447C1120.85 367.582 1121.2 367.774 1121.51 368.025C1121.82 368.272 1122.08 368.569 1122.29 368.915C1122.5 369.258 1122.64 369.639 1122.72 370.059H1121.64ZM1125.61 367.358V376H1124.56V367.358H1125.61ZM1127.23 368.286V367.358H1133.72V368.286H1131V376H1129.95V368.286H1127.23ZM1134.68 376H1133.58L1136.75 367.358H1137.83L1141.01 376H1139.91L1137.33 368.725H1137.26L1134.68 376ZM1135.08 372.624H1139.5V373.553H1135.08V372.624ZM1142.35 376V367.358H1143.4V375.072H1147.42V376H1142.35Z" fill="#212121"></path><g style="mix-blend-mode:hard-light"><path d="M744.011 392.748C783.97 413.254 815.818 447.785 839.683 495.866C839.983 496.469 843.069 502.526 843.703 503.795C850.519 517.501 853.866 526.656 856.004 535.6L834.207 579.661C823.071 602.182 789.726 597.858 784.687 573.243L771.271 507.812C768.666 495.078 757.193 486.121 744.206 486.725L624.781 492.385C594.723 493.785 586.253 451.808 614.43 441.256L744.011 392.748Z" fill="#212121"></path><path d="M921.816 331.305C936.71 335.338 946.597 352.572 938.644 368.654L867.794 511.796C865.604 506.609 863.738 501.876 860.518 495.394C859.875 494.101 856.909 488.086 856.621 487.498C834.005 441.926 804.424 406.968 767.535 383.891L905.715 332.161C911.316 330.064 916.852 329.96 921.816 331.305Z" fill="#212121"></path><path d="M664.318 320.254C685.765 326.001 698.51 348.07 692.764 369.513C687.018 390.957 664.958 403.655 643.51 397.908C622.062 392.161 609.347 370.145 615.093 348.701C620.839 327.258 642.869 314.507 664.318 320.254Z" fill="#212121"></path><path d="M837.694 255.149C859.142 260.895 871.856 282.912 866.11 304.356C860.365 325.799 838.335 338.55 816.887 332.803C795.438 327.056 782.694 304.987 788.439 283.544C794.185 262.1 816.246 249.402 837.694 255.149Z" fill="#212121"></path><path d="M749.297 382.449C789.256 402.955 821.105 437.486 844.969 485.568C845.269 486.171 848.356 492.228 848.989 493.496C855.805 507.202 859.152 516.358 861.29 525.302L839.494 569.363C828.357 591.884 795.012 587.56 789.973 562.945L776.558 497.514C773.952 484.78 762.48 475.822 749.492 476.427L630.067 482.087C600.009 483.486 591.539 441.51 619.717 430.958L749.297 382.449Z" fill="#66DD09"></path><path d="M927.102 321.006C941.996 325.04 951.883 342.273 943.931 358.356L873.081 501.498C870.89 496.31 869.024 491.577 865.805 485.095C865.161 483.803 862.195 477.788 861.907 477.2C839.291 431.628 809.71 396.669 772.821 373.592L911.001 321.863C916.602 319.765 922.138 319.661 927.102 321.006Z" fill="#66DD09"></path><path d="M669.604 309.956C691.051 315.703 703.796 337.772 698.05 359.215C692.304 380.658 670.244 393.356 648.797 387.609C627.348 381.862 614.633 359.847 620.379 338.403C626.125 316.96 648.155 304.209 669.604 309.956Z" fill="#66DD09"></path><path d="M842.98 244.85C864.428 250.597 877.142 272.614 871.397 294.057C865.651 315.501 843.621 328.252 822.173 322.505C800.725 316.758 787.98 294.689 793.725 273.245C799.471 251.802 821.532 239.103 842.98 244.85Z" fill="#66DD09"></path></g><path d="M487.11 256.367L485.464 256.468C485.436 256.327 485.376 256.201 485.283 256.088C485.19 255.973 485.068 255.881 484.916 255.814C484.767 255.744 484.588 255.708 484.38 255.708C484.101 255.708 483.867 255.768 483.675 255.886C483.484 256.001 483.388 256.156 483.388 256.35C483.388 256.505 483.45 256.635 483.574 256.742C483.698 256.849 483.91 256.935 484.211 257L485.384 257.236C486.014 257.365 486.484 257.574 486.794 257.861C487.103 258.147 487.258 258.524 487.258 258.991C487.258 259.416 487.133 259.789 486.882 260.11C486.635 260.43 486.294 260.681 485.861 260.861C485.431 261.038 484.934 261.127 484.372 261.127C483.514 261.127 482.83 260.948 482.321 260.591C481.814 260.231 481.518 259.741 481.43 259.122L483.198 259.029C483.252 259.291 483.381 259.491 483.587 259.629C483.792 259.764 484.055 259.831 484.376 259.831C484.691 259.831 484.944 259.771 485.135 259.65C485.329 259.526 485.428 259.367 485.431 259.173C485.428 259.01 485.359 258.876 485.224 258.772C485.089 258.665 484.881 258.584 484.599 258.527L483.477 258.304C482.844 258.177 482.373 257.958 482.063 257.645C481.757 257.333 481.603 256.935 481.603 256.451C481.603 256.035 481.716 255.676 481.941 255.375C482.169 255.074 482.488 254.842 482.899 254.679C483.312 254.516 483.796 254.434 484.35 254.434C485.169 254.434 485.813 254.607 486.283 254.953C486.756 255.299 487.031 255.77 487.11 256.367ZM491.318 261.127C490.654 261.127 490.083 260.986 489.605 260.705C489.13 260.42 488.764 260.027 488.508 259.523C488.255 259.02 488.128 258.44 488.128 257.785C488.128 257.121 488.256 256.538 488.512 256.038C488.771 255.534 489.138 255.142 489.614 254.86C490.089 254.576 490.654 254.434 491.31 254.434C491.875 254.434 492.37 254.537 492.795 254.742C493.22 254.948 493.556 255.236 493.804 255.607C494.051 255.979 494.188 256.415 494.213 256.915H492.517C492.469 256.592 492.342 256.332 492.137 256.135C491.934 255.935 491.669 255.835 491.339 255.835C491.061 255.835 490.818 255.911 490.609 256.063C490.404 256.212 490.244 256.43 490.128 256.717C490.013 257.004 489.955 257.351 489.955 257.759C489.955 258.173 490.012 258.524 490.124 258.814C490.239 259.104 490.401 259.325 490.609 259.477C490.818 259.629 491.061 259.705 491.339 259.705C491.545 259.705 491.729 259.662 491.892 259.578C492.058 259.494 492.195 259.371 492.301 259.211C492.411 259.048 492.483 258.852 492.517 258.624H494.213C494.185 259.119 494.05 259.555 493.808 259.932C493.569 260.307 493.238 260.599 492.816 260.81C492.394 261.021 491.895 261.127 491.318 261.127ZM497.212 261.122C496.799 261.122 496.43 261.051 496.107 260.907C495.783 260.761 495.527 260.546 495.339 260.262C495.153 259.975 495.06 259.617 495.06 259.19C495.06 258.83 495.126 258.527 495.258 258.282C495.391 258.038 495.571 257.841 495.799 257.692C496.026 257.543 496.285 257.43 496.575 257.354C496.868 257.278 497.174 257.225 497.495 257.194C497.872 257.154 498.176 257.118 498.406 257.084C498.637 257.048 498.804 256.994 498.909 256.924C499.013 256.853 499.065 256.749 499.065 256.611V256.586C499.065 256.319 498.98 256.112 498.811 255.966C498.645 255.82 498.409 255.746 498.103 255.746C497.779 255.746 497.522 255.818 497.33 255.962C497.139 256.102 497.012 256.28 496.951 256.493L495.288 256.358C495.372 255.964 495.538 255.624 495.786 255.337C496.033 255.047 496.353 254.825 496.744 254.67C497.138 254.513 497.593 254.434 498.111 254.434C498.471 254.434 498.816 254.476 499.145 254.561C499.477 254.645 499.771 254.776 500.027 254.953C500.286 255.13 500.49 255.358 500.639 255.637C500.788 255.912 500.862 256.243 500.862 256.628V261H499.157V260.101H499.107C499.003 260.304 498.864 260.482 498.689 260.637C498.515 260.789 498.305 260.909 498.06 260.996C497.816 261.08 497.533 261.122 497.212 261.122ZM497.727 259.882C497.991 259.882 498.225 259.83 498.427 259.726C498.63 259.619 498.789 259.475 498.904 259.295C499.02 259.115 499.077 258.911 499.077 258.683V257.996C499.021 258.032 498.944 258.066 498.845 258.097C498.75 258.125 498.641 258.152 498.52 258.177C498.399 258.2 498.278 258.221 498.157 258.24C498.036 258.257 497.927 258.273 497.828 258.287C497.617 258.318 497.433 258.367 497.275 258.434C497.118 258.502 496.996 258.593 496.908 258.709C496.821 258.821 496.778 258.962 496.778 259.131C496.778 259.375 496.866 259.562 497.043 259.692C497.223 259.818 497.451 259.882 497.727 259.882ZM504.054 252.358V261H502.257V252.358H504.054ZM508.448 261.127C507.782 261.127 507.208 260.992 506.727 260.721C506.248 260.449 505.88 260.063 505.621 259.565C505.362 259.065 505.233 258.472 505.233 257.789C505.233 257.122 505.362 256.537 505.621 256.033C505.88 255.53 506.244 255.137 506.714 254.856C507.187 254.575 507.741 254.434 508.377 254.434C508.804 254.434 509.202 254.503 509.571 254.641C509.942 254.776 510.266 254.98 510.541 255.253C510.82 255.526 511.036 255.869 511.191 256.282C511.346 256.693 511.423 257.174 511.423 257.725V258.219H505.95V257.105H509.731C509.731 256.846 509.675 256.617 509.562 256.417C509.45 256.218 509.294 256.062 509.094 255.949C508.897 255.834 508.668 255.776 508.406 255.776C508.133 255.776 507.891 255.839 507.68 255.966C507.472 256.09 507.309 256.257 507.191 256.468C507.073 256.676 507.012 256.908 507.009 257.164V258.223C507.009 258.544 507.068 258.821 507.187 259.055C507.308 259.288 507.478 259.468 507.697 259.595C507.917 259.721 508.177 259.785 508.478 259.785C508.678 259.785 508.86 259.757 509.026 259.7C509.192 259.644 509.334 259.56 509.453 259.447C509.571 259.335 509.661 259.197 509.723 259.034L511.385 259.143C511.301 259.543 511.128 259.892 510.866 260.19C510.607 260.485 510.273 260.716 509.862 260.882C509.454 261.045 508.983 261.127 508.448 261.127ZM481.574 265.286V264.358H488.055V265.286H485.338V273H484.291V265.286H481.574ZM489.67 273V264.358H494.886V265.286H490.717V268.206H494.616V269.135H490.717V272.072H494.954V273H489.67ZM503.726 267.059H502.68C502.618 266.758 502.51 266.493 502.355 266.265C502.203 266.037 502.017 265.846 501.798 265.691C501.581 265.534 501.341 265.416 501.076 265.337C500.812 265.258 500.536 265.219 500.249 265.219C499.726 265.219 499.252 265.351 498.827 265.615C498.405 265.88 498.069 266.27 497.819 266.784C497.571 267.299 497.447 267.931 497.447 268.679C497.447 269.427 497.571 270.059 497.819 270.574C498.069 271.088 498.405 271.478 498.827 271.743C499.252 272.007 499.726 272.139 500.249 272.139C500.536 272.139 500.812 272.1 501.076 272.021C501.341 271.942 501.581 271.826 501.798 271.671C502.017 271.513 502.203 271.321 502.355 271.093C502.51 270.862 502.618 270.598 502.68 270.299H503.726C503.648 270.741 503.504 271.136 503.296 271.485C503.088 271.834 502.829 272.131 502.52 272.375C502.21 272.617 501.863 272.802 501.477 272.928C501.095 273.055 500.685 273.118 500.249 273.118C499.512 273.118 498.857 272.938 498.283 272.578C497.709 272.218 497.258 271.706 496.928 271.042C496.599 270.378 496.435 269.59 496.435 268.679C496.435 267.768 496.599 266.98 496.928 266.316C497.258 265.652 497.709 265.14 498.283 264.78C498.857 264.42 499.512 264.24 500.249 264.24C500.685 264.24 501.095 264.303 501.477 264.43C501.863 264.556 502.21 264.742 502.52 264.987C502.829 265.229 503.088 265.524 503.296 265.873C503.504 266.219 503.648 266.614 503.726 267.059ZM505.417 273V264.358H506.464V268.206H511.072V264.358H512.118V273H511.072V269.135H506.464V273H505.417Z" fill="#212121"></path><path d="M998.11 460.367L996.464 460.468C996.436 460.327 996.376 460.201 996.283 460.088C996.19 459.973 996.068 459.881 995.916 459.814C995.767 459.744 995.588 459.708 995.38 459.708C995.101 459.708 994.867 459.768 994.675 459.886C994.484 460.001 994.388 460.156 994.388 460.35C994.388 460.505 994.45 460.635 994.574 460.742C994.698 460.849 994.91 460.935 995.211 461L996.384 461.236C997.014 461.365 997.484 461.574 997.794 461.861C998.103 462.147 998.258 462.524 998.258 462.991C998.258 463.416 998.133 463.789 997.882 464.11C997.635 464.43 997.294 464.681 996.861 464.861C996.431 465.038 995.934 465.127 995.372 465.127C994.514 465.127 993.83 464.948 993.321 464.591C992.814 464.231 992.518 463.741 992.43 463.122L994.198 463.029C994.252 463.291 994.381 463.491 994.587 463.629C994.792 463.764 995.055 463.831 995.376 463.831C995.691 463.831 995.944 463.771 996.135 463.65C996.329 463.526 996.428 463.367 996.431 463.173C996.428 463.01 996.359 462.876 996.224 462.772C996.089 462.665 995.881 462.584 995.599 462.527L994.477 462.304C993.844 462.177 993.373 461.958 993.063 461.645C992.757 461.333 992.603 460.935 992.603 460.451C992.603 460.035 992.716 459.676 992.941 459.375C993.169 459.074 993.488 458.842 993.899 458.679C994.312 458.516 994.796 458.434 995.35 458.434C996.169 458.434 996.813 458.607 997.283 458.953C997.756 459.299 998.031 459.77 998.11 460.367ZM1002.32 465.127C1001.65 465.127 1001.08 464.986 1000.61 464.705C1000.13 464.42 999.764 464.027 999.508 463.523C999.255 463.02 999.128 462.44 999.128 461.785C999.128 461.121 999.256 460.538 999.512 460.038C999.771 459.534 1000.14 459.142 1000.61 458.86C1001.09 458.576 1001.65 458.434 1002.31 458.434C1002.88 458.434 1003.37 458.537 1003.8 458.742C1004.22 458.948 1004.56 459.236 1004.8 459.607C1005.05 459.979 1005.19 460.415 1005.21 460.915H1003.52C1003.47 460.592 1003.34 460.332 1003.14 460.135C1002.93 459.935 1002.67 459.835 1002.34 459.835C1002.06 459.835 1001.82 459.911 1001.61 460.063C1001.4 460.212 1001.24 460.43 1001.13 460.717C1001.01 461.004 1000.96 461.351 1000.96 461.759C1000.96 462.173 1001.01 462.524 1001.12 462.814C1001.24 463.104 1001.4 463.325 1001.61 463.477C1001.82 463.629 1002.06 463.705 1002.34 463.705C1002.54 463.705 1002.73 463.662 1002.89 463.578C1003.06 463.494 1003.19 463.371 1003.3 463.211C1003.41 463.048 1003.48 462.852 1003.52 462.624H1005.21C1005.18 463.119 1005.05 463.555 1004.81 463.932C1004.57 464.307 1004.24 464.599 1003.82 464.81C1003.39 465.021 1002.89 465.127 1002.32 465.127ZM1008.21 465.122C1007.8 465.122 1007.43 465.051 1007.11 464.907C1006.78 464.761 1006.53 464.546 1006.34 464.262C1006.15 463.975 1006.06 463.617 1006.06 463.19C1006.06 462.83 1006.13 462.527 1006.26 462.282C1006.39 462.038 1006.57 461.841 1006.8 461.692C1007.03 461.543 1007.29 461.43 1007.58 461.354C1007.87 461.278 1008.17 461.225 1008.49 461.194C1008.87 461.154 1009.18 461.118 1009.41 461.084C1009.64 461.048 1009.8 460.994 1009.91 460.924C1010.01 460.853 1010.06 460.749 1010.06 460.611V460.586C1010.06 460.319 1009.98 460.112 1009.81 459.966C1009.65 459.82 1009.41 459.746 1009.1 459.746C1008.78 459.746 1008.52 459.818 1008.33 459.962C1008.14 460.102 1008.01 460.28 1007.95 460.493L1006.29 460.358C1006.37 459.964 1006.54 459.624 1006.79 459.337C1007.03 459.047 1007.35 458.825 1007.74 458.67C1008.14 458.513 1008.59 458.434 1009.11 458.434C1009.47 458.434 1009.82 458.476 1010.14 458.561C1010.48 458.645 1010.77 458.776 1011.03 458.953C1011.29 459.13 1011.49 459.358 1011.64 459.637C1011.79 459.912 1011.86 460.243 1011.86 460.628V465H1010.16V464.101H1010.11C1010 464.304 1009.86 464.482 1009.69 464.637C1009.51 464.789 1009.31 464.909 1009.06 464.996C1008.82 465.08 1008.53 465.122 1008.21 465.122ZM1008.73 463.882C1008.99 463.882 1009.22 463.83 1009.43 463.726C1009.63 463.619 1009.79 463.475 1009.9 463.295C1010.02 463.115 1010.08 462.911 1010.08 462.683V461.996C1010.02 462.032 1009.94 462.066 1009.85 462.097C1009.75 462.125 1009.64 462.152 1009.52 462.177C1009.4 462.2 1009.28 462.221 1009.16 462.24C1009.04 462.257 1008.93 462.273 1008.83 462.287C1008.62 462.318 1008.43 462.367 1008.28 462.434C1008.12 462.502 1008 462.593 1007.91 462.709C1007.82 462.821 1007.78 462.962 1007.78 463.131C1007.78 463.375 1007.87 463.562 1008.04 463.692C1008.22 463.818 1008.45 463.882 1008.73 463.882ZM1015.05 456.358V465H1013.26V456.358H1015.05ZM1019.45 465.127C1018.78 465.127 1018.21 464.992 1017.73 464.721C1017.25 464.449 1016.88 464.063 1016.62 463.565C1016.36 463.065 1016.23 462.472 1016.23 461.789C1016.23 461.122 1016.36 460.537 1016.62 460.033C1016.88 459.53 1017.24 459.137 1017.71 458.856C1018.19 458.575 1018.74 458.434 1019.38 458.434C1019.8 458.434 1020.2 458.503 1020.57 458.641C1020.94 458.776 1021.27 458.98 1021.54 459.253C1021.82 459.526 1022.04 459.869 1022.19 460.282C1022.35 460.693 1022.42 461.174 1022.42 461.725V462.219H1016.95V461.105H1020.73C1020.73 460.846 1020.67 460.617 1020.56 460.417C1020.45 460.218 1020.29 460.062 1020.09 459.949C1019.9 459.834 1019.67 459.776 1019.41 459.776C1019.13 459.776 1018.89 459.839 1018.68 459.966C1018.47 460.09 1018.31 460.257 1018.19 460.468C1018.07 460.676 1018.01 460.908 1018.01 461.164V462.223C1018.01 462.544 1018.07 462.821 1018.19 463.055C1018.31 463.288 1018.48 463.468 1018.7 463.595C1018.92 463.721 1019.18 463.785 1019.48 463.785C1019.68 463.785 1019.86 463.757 1020.03 463.7C1020.19 463.644 1020.33 463.56 1020.45 463.447C1020.57 463.335 1020.66 463.197 1020.72 463.034L1022.39 463.143C1022.3 463.543 1022.13 463.892 1021.87 464.19C1021.61 464.485 1021.27 464.716 1020.86 464.882C1020.45 465.045 1019.98 465.127 1019.45 465.127ZM994.093 468.358V477H993.046V468.358H994.093ZM1003.04 468.358V477H1002.03L997.322 470.215H997.238V477H996.191V468.358H997.204L1001.93 475.16H1002.01V468.358H1003.04ZM1009.86 470.519C1009.81 470.091 1009.61 469.759 1009.25 469.523C1008.89 469.286 1008.45 469.168 1007.92 469.168C1007.54 469.168 1007.21 469.23 1006.92 469.354C1006.63 469.478 1006.41 469.648 1006.25 469.864C1006.09 470.081 1006.02 470.327 1006.02 470.603C1006.02 470.834 1006.07 471.032 1006.18 471.198C1006.29 471.361 1006.44 471.497 1006.61 471.607C1006.79 471.714 1006.97 471.803 1007.16 471.873C1007.35 471.941 1007.53 471.995 1007.69 472.038L1008.56 472.274C1008.79 472.333 1009.04 472.415 1009.32 472.519C1009.59 472.623 1009.86 472.765 1010.11 472.945C1010.37 473.122 1010.58 473.35 1010.75 473.628C1010.91 473.907 1011 474.249 1011 474.654C1011 475.121 1010.87 475.543 1010.63 475.92C1010.39 476.297 1010.03 476.596 1009.56 476.819C1009.1 477.041 1008.54 477.152 1007.87 477.152C1007.25 477.152 1006.72 477.052 1006.26 476.852C1005.81 476.653 1005.46 476.374 1005.2 476.017C1004.95 475.66 1004.8 475.245 1004.77 474.772H1005.85C1005.88 475.098 1005.98 475.368 1006.18 475.582C1006.37 475.793 1006.62 475.951 1006.91 476.055C1007.21 476.156 1007.53 476.207 1007.87 476.207C1008.27 476.207 1008.63 476.142 1008.95 476.013C1009.27 475.88 1009.52 475.698 1009.7 475.464C1009.89 475.228 1009.98 474.952 1009.98 474.637C1009.98 474.35 1009.9 474.117 1009.74 473.936C1009.58 473.756 1009.37 473.61 1009.11 473.498C1008.85 473.385 1008.56 473.287 1008.26 473.202L1007.2 472.898C1006.52 472.704 1005.99 472.427 1005.59 472.067C1005.2 471.707 1005 471.236 1005 470.654C1005 470.17 1005.13 469.748 1005.4 469.388C1005.66 469.025 1006.01 468.743 1006.46 468.544C1006.91 468.341 1007.41 468.24 1007.96 468.24C1008.51 468.24 1009.01 468.34 1009.44 468.539C1009.88 468.736 1010.22 469.006 1010.47 469.35C1010.73 469.693 1010.86 470.082 1010.88 470.519H1009.86ZM1013.76 468.358V477H1012.72V468.358H1013.76ZM1021.77 471.059C1021.68 470.774 1021.55 470.52 1021.4 470.295C1021.25 470.067 1021.07 469.873 1020.87 469.713C1020.66 469.552 1020.43 469.43 1020.16 469.345C1019.9 469.261 1019.62 469.219 1019.3 469.219C1018.79 469.219 1018.33 469.351 1017.91 469.615C1017.49 469.88 1017.15 470.27 1016.91 470.784C1016.66 471.299 1016.54 471.931 1016.54 472.679C1016.54 473.427 1016.66 474.059 1016.91 474.574C1017.16 475.088 1017.5 475.478 1017.93 475.743C1018.36 476.007 1018.84 476.139 1019.37 476.139C1019.87 476.139 1020.3 476.034 1020.68 475.823C1021.06 475.609 1021.35 475.308 1021.57 474.92C1021.78 474.529 1021.89 474.069 1021.89 473.54L1022.21 473.607H1019.61V472.679H1022.9V473.607C1022.9 474.319 1022.75 474.938 1022.44 475.464C1022.14 475.99 1021.73 476.398 1021.19 476.688C1020.67 476.975 1020.06 477.118 1019.37 477.118C1018.61 477.118 1017.93 476.938 1017.35 476.578C1016.78 476.218 1016.33 475.706 1016 475.042C1015.68 474.378 1015.52 473.59 1015.52 472.679C1015.52 471.995 1015.61 471.381 1015.8 470.835C1015.98 470.286 1016.24 469.819 1016.58 469.434C1016.92 469.049 1017.32 468.753 1017.78 468.548C1018.24 468.343 1018.75 468.24 1019.3 468.24C1019.76 468.24 1020.18 468.309 1020.58 468.447C1020.97 468.582 1021.33 468.774 1021.64 469.025C1021.95 469.272 1022.21 469.569 1022.42 469.915C1022.63 470.258 1022.77 470.639 1022.85 471.059H1021.77ZM1024.69 477V468.358H1025.74V472.206H1030.35V468.358H1031.39V477H1030.35V473.135H1025.74V477H1024.69ZM1033.01 469.286V468.358H1039.5V469.286H1036.78V477H1035.73V469.286H1033.01ZM1045.84 470.519C1045.79 470.091 1045.58 469.759 1045.22 469.523C1044.86 469.286 1044.42 469.168 1043.9 469.168C1043.51 469.168 1043.18 469.23 1042.89 469.354C1042.61 469.478 1042.39 469.648 1042.23 469.864C1042.07 470.081 1041.99 470.327 1041.99 470.603C1041.99 470.834 1042.04 471.032 1042.15 471.198C1042.27 471.361 1042.41 471.497 1042.58 471.607C1042.76 471.714 1042.94 471.803 1043.13 471.873C1043.32 471.941 1043.5 471.995 1043.66 472.038L1044.54 472.274C1044.76 472.333 1045.01 472.415 1045.29 472.519C1045.57 472.623 1045.83 472.765 1046.09 472.945C1046.34 473.122 1046.55 473.35 1046.72 473.628C1046.89 473.907 1046.97 474.249 1046.97 474.654C1046.97 475.121 1046.85 475.543 1046.6 475.92C1046.36 476.297 1046 476.596 1045.54 476.819C1045.07 477.041 1044.51 477.152 1043.85 477.152C1043.23 477.152 1042.69 477.052 1042.24 476.852C1041.79 476.653 1041.43 476.374 1041.17 476.017C1040.92 475.66 1040.77 475.245 1040.74 474.772H1041.82C1041.85 475.098 1041.96 475.368 1042.15 475.582C1042.34 475.793 1042.59 475.951 1042.88 476.055C1043.18 476.156 1043.5 476.207 1043.85 476.207C1044.25 476.207 1044.6 476.142 1044.92 476.013C1045.24 475.88 1045.49 475.698 1045.68 475.464C1045.86 475.228 1045.96 474.952 1045.96 474.637C1045.96 474.35 1045.88 474.117 1045.72 473.936C1045.55 473.756 1045.34 473.61 1045.08 473.498C1044.82 473.385 1044.54 473.287 1044.23 473.202L1043.17 472.898C1042.5 472.704 1041.96 472.427 1041.57 472.067C1041.17 471.707 1040.98 471.236 1040.98 470.654C1040.98 470.17 1041.11 469.748 1041.37 469.388C1041.63 469.025 1041.99 468.743 1042.43 468.544C1042.88 468.341 1043.38 468.24 1043.93 468.24C1044.49 468.24 1044.98 468.34 1045.42 468.539C1045.85 468.736 1046.19 469.006 1046.45 469.35C1046.7 469.693 1046.84 470.082 1046.85 470.519H1045.84Z" fill="#212121"></path><path d="M487.11 668.367L485.464 668.468C485.436 668.327 485.376 668.201 485.283 668.088C485.19 667.973 485.068 667.881 484.916 667.814C484.767 667.744 484.588 667.708 484.38 667.708C484.101 667.708 483.867 667.768 483.675 667.886C483.484 668.001 483.388 668.156 483.388 668.35C483.388 668.505 483.45 668.635 483.574 668.742C483.698 668.849 483.91 668.935 484.211 669L485.384 669.236C486.014 669.365 486.484 669.574 486.794 669.861C487.103 670.147 487.258 670.524 487.258 670.991C487.258 671.416 487.133 671.789 486.882 672.11C486.635 672.43 486.294 672.681 485.861 672.861C485.431 673.038 484.934 673.127 484.372 673.127C483.514 673.127 482.83 672.948 482.321 672.591C481.814 672.231 481.518 671.741 481.43 671.122L483.198 671.029C483.252 671.291 483.381 671.491 483.587 671.629C483.792 671.764 484.055 671.831 484.376 671.831C484.691 671.831 484.944 671.771 485.135 671.65C485.329 671.526 485.428 671.367 485.431 671.173C485.428 671.01 485.359 670.876 485.224 670.772C485.089 670.665 484.881 670.584 484.599 670.527L483.477 670.304C482.844 670.177 482.373 669.958 482.063 669.645C481.757 669.333 481.603 668.935 481.603 668.451C481.603 668.035 481.716 667.676 481.941 667.375C482.169 667.074 482.488 666.842 482.899 666.679C483.312 666.516 483.796 666.434 484.35 666.434C485.169 666.434 485.813 666.607 486.283 666.953C486.756 667.299 487.031 667.77 487.11 668.367ZM491.318 673.127C490.654 673.127 490.083 672.986 489.605 672.705C489.13 672.42 488.764 672.027 488.508 671.523C488.255 671.02 488.128 670.44 488.128 669.785C488.128 669.121 488.256 668.538 488.512 668.038C488.771 667.534 489.138 667.142 489.614 666.86C490.089 666.576 490.654 666.434 491.31 666.434C491.875 666.434 492.37 666.537 492.795 666.742C493.22 666.948 493.556 667.236 493.804 667.607C494.051 667.979 494.188 668.415 494.213 668.915H492.517C492.469 668.592 492.342 668.332 492.137 668.135C491.934 667.935 491.669 667.835 491.339 667.835C491.061 667.835 490.818 667.911 490.609 668.063C490.404 668.212 490.244 668.43 490.128 668.717C490.013 669.004 489.955 669.351 489.955 669.759C489.955 670.173 490.012 670.524 490.124 670.814C490.239 671.104 490.401 671.325 490.609 671.477C490.818 671.629 491.061 671.705 491.339 671.705C491.545 671.705 491.729 671.662 491.892 671.578C492.058 671.494 492.195 671.371 492.301 671.211C492.411 671.048 492.483 670.852 492.517 670.624H494.213C494.185 671.119 494.05 671.555 493.808 671.932C493.569 672.307 493.238 672.599 492.816 672.81C492.394 673.021 491.895 673.127 491.318 673.127ZM497.212 673.122C496.799 673.122 496.43 673.051 496.107 672.907C495.783 672.761 495.527 672.546 495.339 672.262C495.153 671.975 495.06 671.617 495.06 671.19C495.06 670.83 495.126 670.527 495.258 670.282C495.391 670.038 495.571 669.841 495.799 669.692C496.026 669.543 496.285 669.43 496.575 669.354C496.868 669.278 497.174 669.225 497.495 669.194C497.872 669.154 498.176 669.118 498.406 669.084C498.637 669.048 498.804 668.994 498.909 668.924C499.013 668.853 499.065 668.749 499.065 668.611V668.586C499.065 668.319 498.98 668.112 498.811 667.966C498.645 667.82 498.409 667.746 498.103 667.746C497.779 667.746 497.522 667.818 497.33 667.962C497.139 668.102 497.012 668.28 496.951 668.493L495.288 668.358C495.372 667.964 495.538 667.624 495.786 667.337C496.033 667.047 496.353 666.825 496.744 666.67C497.138 666.513 497.593 666.434 498.111 666.434C498.471 666.434 498.816 666.476 499.145 666.561C499.477 666.645 499.771 666.776 500.027 666.953C500.286 667.13 500.49 667.358 500.639 667.637C500.788 667.912 500.862 668.243 500.862 668.628V673H499.157V672.101H499.107C499.003 672.304 498.864 672.482 498.689 672.637C498.515 672.789 498.305 672.909 498.06 672.996C497.816 673.08 497.533 673.122 497.212 673.122ZM497.727 671.882C497.991 671.882 498.225 671.83 498.427 671.726C498.63 671.619 498.789 671.475 498.904 671.295C499.02 671.115 499.077 670.911 499.077 670.683V669.996C499.021 670.032 498.944 670.066 498.845 670.097C498.75 670.125 498.641 670.152 498.52 670.177C498.399 670.2 498.278 670.221 498.157 670.24C498.036 670.257 497.927 670.273 497.828 670.287C497.617 670.318 497.433 670.367 497.275 670.434C497.118 670.502 496.996 670.593 496.908 670.709C496.821 670.821 496.778 670.962 496.778 671.131C496.778 671.375 496.866 671.562 497.043 671.692C497.223 671.818 497.451 671.882 497.727 671.882ZM504.054 664.358V673H502.257V664.358H504.054ZM508.448 673.127C507.782 673.127 507.208 672.992 506.727 672.721C506.248 672.449 505.88 672.063 505.621 671.565C505.362 671.065 505.233 670.472 505.233 669.789C505.233 669.122 505.362 668.537 505.621 668.033C505.88 667.53 506.244 667.137 506.714 666.856C507.187 666.575 507.741 666.434 508.377 666.434C508.804 666.434 509.202 666.503 509.571 666.641C509.942 666.776 510.266 666.98 510.541 667.253C510.82 667.526 511.036 667.869 511.191 668.282C511.346 668.693 511.423 669.174 511.423 669.725V670.219H505.95V669.105H509.731C509.731 668.846 509.675 668.617 509.562 668.417C509.45 668.218 509.294 668.062 509.094 667.949C508.897 667.834 508.668 667.776 508.406 667.776C508.133 667.776 507.891 667.839 507.68 667.966C507.472 668.09 507.309 668.257 507.191 668.468C507.073 668.676 507.012 668.908 507.009 669.164V670.223C507.009 670.544 507.068 670.821 507.187 671.055C507.308 671.288 507.478 671.468 507.697 671.595C507.917 671.721 508.177 671.785 508.478 671.785C508.678 671.785 508.86 671.757 509.026 671.7C509.192 671.644 509.334 671.56 509.453 671.447C509.571 671.335 509.661 671.197 509.723 671.034L511.385 671.143C511.301 671.543 511.128 671.892 510.866 672.19C510.607 672.485 510.273 672.716 509.862 672.882C509.454 673.045 508.983 673.127 508.448 673.127ZM487.954 679.059C487.861 678.774 487.739 678.52 487.587 678.295C487.438 678.067 487.259 677.873 487.051 677.713C486.846 677.552 486.612 677.43 486.351 677.345C486.089 677.261 485.802 677.219 485.49 677.219C484.978 677.219 484.512 677.351 484.093 677.615C483.674 677.88 483.341 678.27 483.093 678.784C482.845 679.299 482.722 679.931 482.722 680.679C482.722 681.427 482.847 682.059 483.097 682.574C483.348 683.088 483.687 683.478 484.114 683.743C484.542 684.007 485.023 684.139 485.557 684.139C486.052 684.139 486.488 684.034 486.865 683.823C487.245 683.609 487.541 683.308 487.752 682.92C487.965 682.529 488.072 682.069 488.072 681.54L488.393 681.607H485.794V680.679H489.085V681.607C489.085 682.319 488.933 682.938 488.629 683.464C488.328 683.99 487.912 684.398 487.38 684.688C486.851 684.975 486.244 685.118 485.557 685.118C484.792 685.118 484.12 684.938 483.54 684.578C482.964 684.218 482.513 683.706 482.19 683.042C481.869 682.378 481.709 681.59 481.709 680.679C481.709 679.995 481.8 679.381 481.983 678.835C482.169 678.286 482.43 677.819 482.768 677.434C483.106 677.049 483.505 676.753 483.966 676.548C484.428 676.343 484.936 676.24 485.49 676.24C485.946 676.24 486.37 676.309 486.764 676.447C487.161 676.582 487.514 676.774 487.823 677.025C488.136 677.272 488.396 677.569 488.604 677.915C488.812 678.258 488.956 678.639 489.034 679.059H487.954ZM490.877 685V676.358H493.797C494.473 676.358 495.027 676.473 495.46 676.704C495.893 676.932 496.214 677.246 496.422 677.645C496.63 678.044 496.734 678.499 496.734 679.008C496.734 679.517 496.63 679.969 496.422 680.363C496.214 680.756 495.895 681.066 495.464 681.291C495.034 681.513 494.484 681.624 493.814 681.624H491.451V680.679H493.78C494.242 680.679 494.613 680.611 494.895 680.476C495.179 680.341 495.384 680.15 495.511 679.903C495.64 679.652 495.705 679.354 495.705 679.008C495.705 678.662 495.64 678.36 495.511 678.101C495.381 677.842 495.174 677.642 494.89 677.502C494.606 677.358 494.231 677.286 493.764 677.286H491.924V685H490.877ZM494.945 681.118L497.072 685H495.857L493.764 681.118H494.945ZM505.77 680.679C505.77 681.59 505.605 682.378 505.276 683.042C504.947 683.706 504.495 684.218 503.922 684.578C503.348 684.938 502.692 685.118 501.955 685.118C501.218 685.118 500.563 684.938 499.989 684.578C499.415 684.218 498.963 683.706 498.634 683.042C498.305 682.378 498.141 681.59 498.141 680.679C498.141 679.768 498.305 678.98 498.634 678.316C498.963 677.652 499.415 677.14 499.989 676.78C500.563 676.42 501.218 676.24 501.955 676.24C502.692 676.24 503.348 676.42 503.922 676.78C504.495 677.14 504.947 677.652 505.276 678.316C505.605 678.98 505.77 679.768 505.77 680.679ZM504.757 680.679C504.757 679.931 504.632 679.299 504.382 678.784C504.134 678.27 503.798 677.88 503.373 677.615C502.951 677.351 502.478 677.219 501.955 677.219C501.432 677.219 500.958 677.351 500.533 677.615C500.111 677.88 499.775 678.27 499.525 678.784C499.277 679.299 499.153 679.931 499.153 680.679C499.153 681.427 499.277 682.059 499.525 682.574C499.775 683.088 500.111 683.478 500.533 683.743C500.958 684.007 501.432 684.139 501.955 684.139C502.478 684.139 502.951 684.007 503.373 683.743C503.798 683.478 504.134 683.088 504.382 682.574C504.632 682.059 504.757 681.427 504.757 680.679ZM509.099 685L506.736 676.358H507.799L509.606 683.397H509.69L511.53 676.358H512.711L514.551 683.397H514.635L516.441 676.358H517.505L515.142 685H514.062L512.154 678.113H512.087L510.179 685H509.099ZM518.336 677.286V676.358H524.818V677.286H522.1V685H521.054V677.286H518.336ZM526.433 685V676.358H527.479V680.206H532.087V676.358H533.134V685H532.087V681.135H527.479V685H526.433Z" fill="#212121"></path><path d="M586.11 563.367L584.464 563.468C584.436 563.327 584.376 563.201 584.283 563.088C584.19 562.973 584.068 562.881 583.916 562.814C583.767 562.744 583.588 562.708 583.38 562.708C583.101 562.708 582.867 562.768 582.675 562.886C582.484 563.001 582.388 563.156 582.388 563.35C582.388 563.505 582.45 563.635 582.574 563.742C582.698 563.849 582.91 563.935 583.211 564L584.384 564.236C585.014 564.365 585.484 564.574 585.794 564.861C586.103 565.147 586.258 565.524 586.258 565.991C586.258 566.416 586.133 566.789 585.882 567.11C585.635 567.43 585.294 567.681 584.861 567.861C584.431 568.038 583.934 568.127 583.372 568.127C582.514 568.127 581.83 567.948 581.321 567.591C580.814 567.231 580.518 566.741 580.43 566.122L582.198 566.029C582.252 566.291 582.381 566.491 582.587 566.629C582.792 566.764 583.055 566.831 583.376 566.831C583.691 566.831 583.944 566.771 584.135 566.65C584.329 566.526 584.428 566.367 584.431 566.173C584.428 566.01 584.359 565.876 584.224 565.772C584.089 565.665 583.881 565.584 583.599 565.527L582.477 565.304C581.844 565.177 581.373 564.958 581.063 564.645C580.757 564.333 580.603 563.935 580.603 563.451C580.603 563.035 580.716 562.676 580.941 562.375C581.169 562.074 581.488 561.842 581.899 561.679C582.312 561.516 582.796 561.434 583.35 561.434C584.169 561.434 584.813 561.607 585.283 561.953C585.756 562.299 586.031 562.77 586.11 563.367ZM590.318 568.127C589.654 568.127 589.083 567.986 588.605 567.705C588.13 567.42 587.764 567.027 587.508 566.523C587.255 566.02 587.128 565.44 587.128 564.785C587.128 564.121 587.256 563.538 587.512 563.038C587.771 562.534 588.138 562.142 588.614 561.86C589.089 561.576 589.654 561.434 590.31 561.434C590.875 561.434 591.37 561.537 591.795 561.742C592.22 561.948 592.556 562.236 592.804 562.607C593.051 562.979 593.188 563.415 593.213 563.915H591.517C591.469 563.592 591.342 563.332 591.137 563.135C590.934 562.935 590.669 562.835 590.339 562.835C590.061 562.835 589.818 562.911 589.609 563.063C589.404 563.212 589.244 563.43 589.128 563.717C589.013 564.004 588.955 564.351 588.955 564.759C588.955 565.173 589.012 565.524 589.124 565.814C589.239 566.104 589.401 566.325 589.609 566.477C589.818 566.629 590.061 566.705 590.339 566.705C590.545 566.705 590.729 566.662 590.892 566.578C591.058 566.494 591.195 566.371 591.301 566.211C591.411 566.048 591.483 565.852 591.517 565.624H593.213C593.185 566.119 593.05 566.555 592.808 566.932C592.569 567.307 592.238 567.599 591.816 567.81C591.394 568.021 590.895 568.127 590.318 568.127ZM596.212 568.122C595.799 568.122 595.43 568.051 595.107 567.907C594.783 567.761 594.527 567.546 594.339 567.262C594.153 566.975 594.06 566.617 594.06 566.19C594.06 565.83 594.126 565.527 594.258 565.282C594.391 565.038 594.571 564.841 594.799 564.692C595.026 564.543 595.285 564.43 595.575 564.354C595.868 564.278 596.174 564.225 596.495 564.194C596.872 564.154 597.176 564.118 597.406 564.084C597.637 564.048 597.804 563.994 597.909 563.924C598.013 563.853 598.065 563.749 598.065 563.611V563.586C598.065 563.319 597.98 563.112 597.811 562.966C597.645 562.82 597.409 562.746 597.103 562.746C596.779 562.746 596.522 562.818 596.33 562.962C596.139 563.102 596.012 563.28 595.951 563.493L594.288 563.358C594.372 562.964 594.538 562.624 594.786 562.337C595.033 562.047 595.353 561.825 595.744 561.67C596.138 561.513 596.593 561.434 597.111 561.434C597.471 561.434 597.816 561.476 598.145 561.561C598.477 561.645 598.771 561.776 599.027 561.953C599.286 562.13 599.49 562.358 599.639 562.637C599.788 562.912 599.862 563.243 599.862 563.628V568H598.157V567.101H598.107C598.003 567.304 597.864 567.482 597.689 567.637C597.515 567.789 597.305 567.909 597.06 567.996C596.816 568.08 596.533 568.122 596.212 568.122ZM596.727 566.882C596.991 566.882 597.225 566.83 597.427 566.726C597.63 566.619 597.789 566.475 597.904 566.295C598.02 566.115 598.077 565.911 598.077 565.683V564.996C598.021 565.032 597.944 565.066 597.845 565.097C597.75 565.125 597.641 565.152 597.52 565.177C597.399 565.2 597.278 565.221 597.157 565.24C597.036 565.257 596.927 565.273 596.828 565.287C596.617 565.318 596.433 565.367 596.275 565.434C596.118 565.502 595.996 565.593 595.908 565.709C595.821 565.821 595.778 565.962 595.778 566.131C595.778 566.375 595.866 566.562 596.043 566.692C596.223 566.818 596.451 566.882 596.727 566.882ZM603.054 559.358V568H601.257V559.358H603.054ZM607.448 568.127C606.782 568.127 606.208 567.992 605.727 567.721C605.248 567.449 604.88 567.063 604.621 566.565C604.362 566.065 604.233 565.472 604.233 564.789C604.233 564.122 604.362 563.537 604.621 563.033C604.88 562.53 605.244 562.137 605.714 561.856C606.187 561.575 606.741 561.434 607.377 561.434C607.804 561.434 608.202 561.503 608.571 561.641C608.942 561.776 609.266 561.98 609.541 562.253C609.82 562.526 610.036 562.869 610.191 563.282C610.346 563.693 610.423 564.174 610.423 564.725V565.219H604.95V564.105H608.731C608.731 563.846 608.675 563.617 608.562 563.417C608.45 563.218 608.294 563.062 608.094 562.949C607.897 562.834 607.668 562.776 607.406 562.776C607.133 562.776 606.891 562.839 606.68 562.966C606.472 563.09 606.309 563.257 606.191 563.468C606.073 563.676 606.012 563.908 606.009 564.164V565.223C606.009 565.544 606.068 565.821 606.187 566.055C606.308 566.288 606.478 566.468 606.697 566.595C606.917 566.721 607.177 566.785 607.478 566.785C607.678 566.785 607.86 566.757 608.026 566.7C608.192 566.644 608.334 566.56 608.453 566.447C608.571 566.335 608.661 566.197 608.723 566.034L610.385 566.143C610.301 566.543 610.128 566.892 609.866 567.19C609.607 567.485 609.273 567.716 608.862 567.882C608.454 568.045 607.983 568.127 607.448 568.127ZM583.713 580H581.046V571.358H583.832C584.67 571.358 585.387 571.531 585.984 571.877C586.58 572.22 587.037 572.714 587.355 573.358C587.673 574 587.832 574.768 587.832 575.662C587.832 576.562 587.671 577.337 587.351 577.987C587.03 578.634 586.563 579.132 585.95 579.481C585.337 579.827 584.591 580 583.713 580ZM582.093 579.072H583.646C584.36 579.072 584.953 578.934 585.422 578.658C585.892 578.382 586.242 577.99 586.473 577.481C586.704 576.972 586.819 576.365 586.819 575.662C586.819 574.964 586.705 574.364 586.477 573.86C586.249 573.354 585.909 572.966 585.456 572.696C585.003 572.423 584.439 572.286 583.764 572.286H582.093V579.072ZM589.587 580V571.358H594.803V572.286H590.634V575.206H594.533V576.135H590.634V579.072H594.87V580H589.587ZM601.415 573.519C601.364 573.091 601.159 572.759 600.799 572.523C600.439 572.286 599.997 572.168 599.474 572.168C599.091 572.168 598.757 572.23 598.47 572.354C598.186 572.478 597.963 572.648 597.803 572.864C597.645 573.081 597.567 573.327 597.567 573.603C597.567 573.834 597.622 574.032 597.731 574.198C597.844 574.361 597.987 574.497 598.162 574.607C598.336 574.714 598.519 574.803 598.71 574.873C598.902 574.941 599.077 574.995 599.238 575.038L600.115 575.274C600.34 575.333 600.591 575.415 600.867 575.519C601.145 575.623 601.411 575.765 601.664 575.945C601.92 576.122 602.131 576.35 602.297 576.628C602.463 576.907 602.546 577.249 602.546 577.654C602.546 578.121 602.424 578.543 602.179 578.92C601.937 579.297 601.582 579.596 601.116 579.819C600.651 580.041 600.087 580.152 599.423 580.152C598.805 580.152 598.269 580.052 597.816 579.852C597.366 579.653 597.011 579.374 596.752 579.017C596.496 578.66 596.351 578.245 596.318 577.772H597.398C597.426 578.098 597.536 578.368 597.727 578.582C597.921 578.793 598.166 578.951 598.461 579.055C598.759 579.156 599.08 579.207 599.423 579.207C599.823 579.207 600.182 579.142 600.499 579.013C600.817 578.88 601.069 578.698 601.255 578.464C601.44 578.228 601.533 577.952 601.533 577.637C601.533 577.35 601.453 577.117 601.293 576.936C601.132 576.756 600.921 576.61 600.66 576.498C600.398 576.385 600.115 576.287 599.812 576.202L598.748 575.898C598.073 575.704 597.539 575.427 597.145 575.067C596.751 574.707 596.554 574.236 596.554 573.654C596.554 573.17 596.685 572.748 596.946 572.388C597.211 572.025 597.565 571.743 598.01 571.544C598.457 571.341 598.956 571.24 599.508 571.24C600.065 571.24 600.56 571.34 600.993 571.539C601.426 571.736 601.77 572.006 602.023 572.35C602.279 572.693 602.414 573.082 602.428 573.519H601.415ZM605.313 571.358V580H604.267V571.358H605.313ZM613.319 574.059C613.226 573.774 613.104 573.52 612.952 573.295C612.803 573.067 612.624 572.873 612.416 572.713C612.211 572.552 611.977 572.43 611.715 572.345C611.454 572.261 611.167 572.219 610.855 572.219C610.343 572.219 609.877 572.351 609.458 572.615C609.039 572.88 608.705 573.27 608.458 573.784C608.21 574.299 608.086 574.931 608.086 575.679C608.086 576.427 608.212 577.059 608.462 577.574C608.712 578.088 609.051 578.478 609.479 578.743C609.907 579.007 610.388 579.139 610.922 579.139C611.417 579.139 611.853 579.034 612.23 578.823C612.61 578.609 612.905 578.308 613.116 577.92C613.33 577.529 613.437 577.069 613.437 576.54L613.758 576.607H611.158V575.679H614.45V576.607C614.45 577.319 614.298 577.938 613.994 578.464C613.693 578.99 613.277 579.398 612.745 579.688C612.216 579.975 611.609 580.118 610.922 580.118C610.157 580.118 609.485 579.938 608.905 579.578C608.328 579.218 607.878 578.706 607.555 578.042C607.234 577.378 607.074 576.59 607.074 575.679C607.074 574.995 607.165 574.381 607.348 573.835C607.534 573.286 607.795 572.819 608.133 572.434C608.47 572.049 608.87 571.753 609.331 571.548C609.793 571.343 610.3 571.24 610.855 571.24C611.31 571.24 611.735 571.309 612.129 571.447C612.526 571.582 612.879 571.774 613.188 572.025C613.5 572.272 613.761 572.569 613.969 572.915C614.177 573.258 614.32 573.639 614.399 574.059H613.319ZM623.095 571.358V580H622.082L617.373 573.215H617.289V580H616.242V571.358H617.255L621.981 578.16H622.065V571.358H623.095Z" fill="#212121"></path><path d="M683.11 153.367L681.464 153.468C681.436 153.327 681.376 153.201 681.283 153.088C681.19 152.973 681.068 152.881 680.916 152.814C680.767 152.744 680.588 152.708 680.38 152.708C680.101 152.708 679.867 152.768 679.675 152.886C679.484 153.001 679.388 153.156 679.388 153.35C679.388 153.505 679.45 153.635 679.574 153.742C679.698 153.849 679.91 153.935 680.211 154L681.384 154.236C682.014 154.365 682.484 154.574 682.794 154.861C683.103 155.147 683.258 155.524 683.258 155.991C683.258 156.416 683.133 156.789 682.882 157.11C682.635 157.43 682.294 157.681 681.861 157.861C681.431 158.038 680.934 158.127 680.372 158.127C679.514 158.127 678.83 157.948 678.321 157.591C677.814 157.231 677.518 156.741 677.43 156.122L679.198 156.029C679.252 156.291 679.381 156.491 679.587 156.629C679.792 156.764 680.055 156.831 680.376 156.831C680.691 156.831 680.944 156.771 681.135 156.65C681.329 156.526 681.428 156.367 681.431 156.173C681.428 156.01 681.359 155.876 681.224 155.772C681.089 155.665 680.881 155.584 680.599 155.527L679.477 155.304C678.844 155.177 678.373 154.958 678.063 154.645C677.757 154.333 677.603 153.935 677.603 153.451C677.603 153.035 677.716 152.676 677.941 152.375C678.169 152.074 678.488 151.842 678.899 151.679C679.312 151.516 679.796 151.434 680.35 151.434C681.169 151.434 681.813 151.607 682.283 151.953C682.756 152.299 683.031 152.77 683.11 153.367ZM687.318 158.127C686.654 158.127 686.083 157.986 685.605 157.705C685.13 157.42 684.764 157.027 684.508 156.523C684.255 156.02 684.128 155.44 684.128 154.785C684.128 154.121 684.256 153.538 684.512 153.038C684.771 152.534 685.138 152.142 685.614 151.86C686.089 151.576 686.654 151.434 687.31 151.434C687.875 151.434 688.37 151.537 688.795 151.742C689.22 151.948 689.556 152.236 689.804 152.607C690.051 152.979 690.188 153.415 690.213 153.915H688.517C688.469 153.592 688.342 153.332 688.137 153.135C687.934 152.935 687.669 152.835 687.339 152.835C687.061 152.835 686.818 152.911 686.609 153.063C686.404 153.212 686.244 153.43 686.128 153.717C686.013 154.004 685.955 154.351 685.955 154.759C685.955 155.173 686.012 155.524 686.124 155.814C686.239 156.104 686.401 156.325 686.609 156.477C686.818 156.629 687.061 156.705 687.339 156.705C687.545 156.705 687.729 156.662 687.892 156.578C688.058 156.494 688.195 156.371 688.301 156.211C688.411 156.048 688.483 155.852 688.517 155.624H690.213C690.185 156.119 690.05 156.555 689.808 156.932C689.569 157.307 689.238 157.599 688.816 157.81C688.394 158.021 687.895 158.127 687.318 158.127ZM693.212 158.122C692.799 158.122 692.43 158.051 692.107 157.907C691.783 157.761 691.527 157.546 691.339 157.262C691.153 156.975 691.06 156.617 691.06 156.19C691.06 155.83 691.126 155.527 691.258 155.282C691.391 155.038 691.571 154.841 691.799 154.692C692.026 154.543 692.285 154.43 692.575 154.354C692.868 154.278 693.174 154.225 693.495 154.194C693.872 154.154 694.176 154.118 694.406 154.084C694.637 154.048 694.804 153.994 694.909 153.924C695.013 153.853 695.065 153.749 695.065 153.611V153.586C695.065 153.319 694.98 153.112 694.811 152.966C694.645 152.82 694.409 152.746 694.103 152.746C693.779 152.746 693.522 152.818 693.33 152.962C693.139 153.102 693.012 153.28 692.951 153.493L691.288 153.358C691.372 152.964 691.538 152.624 691.786 152.337C692.033 152.047 692.353 151.825 692.744 151.67C693.138 151.513 693.593 151.434 694.111 151.434C694.471 151.434 694.816 151.476 695.145 151.561C695.477 151.645 695.771 151.776 696.027 151.953C696.286 152.13 696.49 152.358 696.639 152.637C696.788 152.912 696.862 153.243 696.862 153.628V158H695.157V157.101H695.107C695.003 157.304 694.864 157.482 694.689 157.637C694.515 157.789 694.305 157.909 694.06 157.996C693.816 158.08 693.533 158.122 693.212 158.122ZM693.727 156.882C693.991 156.882 694.225 156.83 694.427 156.726C694.63 156.619 694.789 156.475 694.904 156.295C695.02 156.115 695.077 155.911 695.077 155.683V154.996C695.021 155.032 694.944 155.066 694.845 155.097C694.75 155.125 694.641 155.152 694.52 155.177C694.399 155.2 694.278 155.221 694.157 155.24C694.036 155.257 693.927 155.273 693.828 155.287C693.617 155.318 693.433 155.367 693.275 155.434C693.118 155.502 692.996 155.593 692.908 155.709C692.821 155.821 692.778 155.962 692.778 156.131C692.778 156.375 692.866 156.562 693.043 156.692C693.223 156.818 693.451 156.882 693.727 156.882ZM700.054 149.358V158H698.257V149.358H700.054ZM704.448 158.127C703.782 158.127 703.208 157.992 702.727 157.721C702.248 157.449 701.88 157.063 701.621 156.565C701.362 156.065 701.233 155.472 701.233 154.789C701.233 154.122 701.362 153.537 701.621 153.033C701.88 152.53 702.244 152.137 702.714 151.856C703.187 151.575 703.741 151.434 704.377 151.434C704.804 151.434 705.202 151.503 705.571 151.641C705.942 151.776 706.266 151.98 706.541 152.253C706.82 152.526 707.036 152.869 707.191 153.282C707.346 153.693 707.423 154.174 707.423 154.725V155.219H701.95V154.105H705.731C705.731 153.846 705.675 153.617 705.562 153.417C705.45 153.218 705.294 153.062 705.094 152.949C704.897 152.834 704.668 152.776 704.406 152.776C704.133 152.776 703.891 152.839 703.68 152.966C703.472 153.09 703.309 153.257 703.191 153.468C703.073 153.676 703.012 153.908 703.009 154.164V155.223C703.009 155.544 703.068 155.821 703.187 156.055C703.308 156.288 703.478 156.468 703.697 156.595C703.917 156.721 704.177 156.785 704.478 156.785C704.678 156.785 704.86 156.757 705.026 156.7C705.192 156.644 705.334 156.56 705.453 156.447C705.571 156.335 705.661 156.197 705.723 156.034L707.385 156.143C707.301 156.543 707.128 156.892 706.866 157.19C706.607 157.485 706.273 157.716 705.862 157.882C705.454 158.045 704.983 158.127 704.448 158.127ZM685.001 164.059H683.954C683.892 163.758 683.784 163.493 683.629 163.265C683.477 163.037 683.292 162.846 683.072 162.691C682.856 162.534 682.615 162.416 682.351 162.337C682.086 162.258 681.81 162.219 681.524 162.219C681 162.219 680.526 162.351 680.101 162.615C679.68 162.88 679.343 163.27 679.093 163.784C678.845 164.299 678.722 164.931 678.722 165.679C678.722 166.427 678.845 167.059 679.093 167.574C679.343 168.088 679.68 168.478 680.101 168.743C680.526 169.007 681 169.139 681.524 169.139C681.81 169.139 682.086 169.1 682.351 169.021C682.615 168.942 682.856 168.826 683.072 168.671C683.292 168.513 683.477 168.321 683.629 168.093C683.784 167.862 683.892 167.598 683.954 167.299H685.001C684.922 167.741 684.778 168.136 684.57 168.485C684.362 168.834 684.103 169.131 683.794 169.375C683.484 169.617 683.137 169.802 682.751 169.928C682.369 170.055 681.96 170.118 681.524 170.118C680.787 170.118 680.131 169.938 679.557 169.578C678.983 169.218 678.532 168.706 678.203 168.042C677.873 167.378 677.709 166.59 677.709 165.679C677.709 164.768 677.873 163.98 678.203 163.316C678.532 162.652 678.983 162.14 679.557 161.78C680.131 161.42 680.787 161.24 681.524 161.24C681.96 161.24 682.369 161.303 682.751 161.43C683.137 161.556 683.484 161.742 683.794 161.987C684.103 162.229 684.362 162.524 684.57 162.873C684.778 163.219 684.922 163.614 685.001 164.059ZM693.983 165.679C693.983 166.59 693.819 167.378 693.49 168.042C693.16 168.706 692.709 169.218 692.135 169.578C691.561 169.938 690.906 170.118 690.169 170.118C689.432 170.118 688.776 169.938 688.202 169.578C687.628 169.218 687.177 168.706 686.848 168.042C686.519 167.378 686.354 166.59 686.354 165.679C686.354 164.768 686.519 163.98 686.848 163.316C687.177 162.652 687.628 162.14 688.202 161.78C688.776 161.42 689.432 161.24 690.169 161.24C690.906 161.24 691.561 161.42 692.135 161.78C692.709 162.14 693.16 162.652 693.49 163.316C693.819 163.98 693.983 164.768 693.983 165.679ZM692.971 165.679C692.971 164.931 692.845 164.299 692.595 163.784C692.347 163.27 692.011 162.88 691.587 162.615C691.165 162.351 690.692 162.219 690.169 162.219C689.645 162.219 689.171 162.351 688.747 162.615C688.325 162.88 687.989 163.27 687.738 163.784C687.491 164.299 687.367 164.931 687.367 165.679C687.367 166.427 687.491 167.059 687.738 167.574C687.989 168.088 688.325 168.478 688.747 168.743C689.171 169.007 689.645 169.139 690.169 169.139C690.692 169.139 691.165 169.007 691.587 168.743C692.011 168.478 692.347 168.088 692.595 167.574C692.845 167.059 692.971 166.427 692.971 165.679ZM695.743 161.358H696.992L699.929 168.532H700.03L702.967 161.358H704.216V170H703.237V163.434H703.153L700.452 170H699.507L696.806 163.434H696.722V170H695.743V161.358ZM706.314 161.358H707.563L710.5 168.532H710.602L713.539 161.358H714.788V170H713.809V163.434H713.724L711.024 170H710.078L707.378 163.434H707.293V170H706.314V161.358ZM716.886 170V161.358H722.101V162.286H717.932V165.206H721.831V166.135H717.932V169.072H722.169V170H716.886ZM723.988 170V161.358H726.908C727.583 161.358 728.137 161.473 728.57 161.704C729.004 161.932 729.324 162.246 729.532 162.645C729.741 163.044 729.845 163.499 729.845 164.008C729.845 164.517 729.741 164.969 729.532 165.363C729.324 165.756 729.005 166.066 728.575 166.291C728.144 166.513 727.594 166.624 726.925 166.624H724.562V165.679H726.891C727.352 165.679 727.724 165.611 728.005 165.476C728.289 165.341 728.494 165.15 728.621 164.903C728.75 164.652 728.815 164.354 728.815 164.008C728.815 163.662 728.75 163.36 728.621 163.101C728.492 162.842 728.285 162.642 728.001 162.502C727.717 162.358 727.341 162.286 726.874 162.286H725.034V170H723.988ZM728.056 166.118L730.182 170H728.967L726.874 166.118H728.056ZM738.543 164.059H737.496C737.434 163.758 737.326 163.493 737.171 163.265C737.019 163.037 736.834 162.846 736.614 162.691C736.398 162.534 736.157 162.416 735.893 162.337C735.628 162.258 735.352 162.219 735.066 162.219C734.542 162.219 734.068 162.351 733.643 162.615C733.222 162.88 732.885 163.27 732.635 163.784C732.387 164.299 732.264 164.931 732.264 165.679C732.264 166.427 732.387 167.059 732.635 167.574C732.885 168.088 733.222 168.478 733.643 168.743C734.068 169.007 734.542 169.139 735.066 169.139C735.352 169.139 735.628 169.1 735.893 169.021C736.157 168.942 736.398 168.826 736.614 168.671C736.834 168.513 737.019 168.321 737.171 168.093C737.326 167.862 737.434 167.598 737.496 167.299H738.543C738.464 167.741 738.32 168.136 738.112 168.485C737.904 168.834 737.645 169.131 737.336 169.375C737.026 169.617 736.679 169.802 736.293 169.928C735.911 170.055 735.502 170.118 735.066 170.118C734.329 170.118 733.673 169.938 733.099 169.578C732.525 169.218 732.074 168.706 731.745 168.042C731.415 167.378 731.251 166.59 731.251 165.679C731.251 164.768 731.415 163.98 731.745 163.316C732.074 162.652 732.525 162.14 733.099 161.78C733.673 161.42 734.329 161.24 735.066 161.24C735.502 161.24 735.911 161.303 736.293 161.43C736.679 161.556 737.026 161.742 737.336 161.987C737.645 162.229 737.904 162.524 738.112 162.873C738.32 163.219 738.464 163.614 738.543 164.059ZM740.234 170V161.358H745.449V162.286H741.28V165.206H745.179V166.135H741.28V169.072H745.517V170H740.234Z" fill="#212121"></path><path d="M386.11 462.367L384.464 462.468C384.436 462.327 384.376 462.201 384.283 462.088C384.19 461.973 384.068 461.881 383.916 461.814C383.767 461.744 383.588 461.708 383.38 461.708C383.101 461.708 382.867 461.768 382.675 461.886C382.484 462.001 382.388 462.156 382.388 462.35C382.388 462.505 382.45 462.635 382.574 462.742C382.698 462.849 382.91 462.935 383.211 463L384.384 463.236C385.014 463.365 385.484 463.574 385.794 463.861C386.103 464.147 386.258 464.524 386.258 464.991C386.258 465.416 386.133 465.789 385.882 466.11C385.635 466.43 385.294 466.681 384.861 466.861C384.431 467.038 383.934 467.127 383.372 467.127C382.514 467.127 381.83 466.948 381.321 466.591C380.814 466.231 380.518 465.741 380.43 465.122L382.198 465.029C382.252 465.291 382.381 465.491 382.587 465.629C382.792 465.764 383.055 465.831 383.376 465.831C383.691 465.831 383.944 465.771 384.135 465.65C384.329 465.526 384.428 465.367 384.431 465.173C384.428 465.01 384.359 464.876 384.224 464.772C384.089 464.665 383.881 464.584 383.599 464.527L382.477 464.304C381.844 464.177 381.373 463.958 381.063 463.645C380.757 463.333 380.603 462.935 380.603 462.451C380.603 462.035 380.716 461.676 380.941 461.375C381.169 461.074 381.488 460.842 381.899 460.679C382.312 460.516 382.796 460.434 383.35 460.434C384.169 460.434 384.813 460.607 385.283 460.953C385.756 461.299 386.031 461.77 386.11 462.367ZM390.318 467.127C389.654 467.127 389.083 466.986 388.605 466.705C388.13 466.42 387.764 466.027 387.508 465.523C387.255 465.02 387.128 464.44 387.128 463.785C387.128 463.121 387.256 462.538 387.512 462.038C387.771 461.534 388.138 461.142 388.614 460.86C389.089 460.576 389.654 460.434 390.31 460.434C390.875 460.434 391.37 460.537 391.795 460.742C392.22 460.948 392.556 461.236 392.804 461.607C393.051 461.979 393.188 462.415 393.213 462.915H391.517C391.469 462.592 391.342 462.332 391.137 462.135C390.934 461.935 390.669 461.835 390.339 461.835C390.061 461.835 389.818 461.911 389.609 462.063C389.404 462.212 389.244 462.43 389.128 462.717C389.013 463.004 388.955 463.351 388.955 463.759C388.955 464.173 389.012 464.524 389.124 464.814C389.239 465.104 389.401 465.325 389.609 465.477C389.818 465.629 390.061 465.705 390.339 465.705C390.545 465.705 390.729 465.662 390.892 465.578C391.058 465.494 391.195 465.371 391.301 465.211C391.411 465.048 391.483 464.852 391.517 464.624H393.213C393.185 465.119 393.05 465.555 392.808 465.932C392.569 466.307 392.238 466.599 391.816 466.81C391.394 467.021 390.895 467.127 390.318 467.127ZM396.212 467.122C395.799 467.122 395.43 467.051 395.107 466.907C394.783 466.761 394.527 466.546 394.339 466.262C394.153 465.975 394.06 465.617 394.06 465.19C394.06 464.83 394.126 464.527 394.258 464.282C394.391 464.038 394.571 463.841 394.799 463.692C395.026 463.543 395.285 463.43 395.575 463.354C395.868 463.278 396.174 463.225 396.495 463.194C396.872 463.154 397.176 463.118 397.406 463.084C397.637 463.048 397.804 462.994 397.909 462.924C398.013 462.853 398.065 462.749 398.065 462.611V462.586C398.065 462.319 397.98 462.112 397.811 461.966C397.645 461.82 397.409 461.746 397.103 461.746C396.779 461.746 396.522 461.818 396.33 461.962C396.139 462.102 396.012 462.28 395.951 462.493L394.288 462.358C394.372 461.964 394.538 461.624 394.786 461.337C395.033 461.047 395.353 460.825 395.744 460.67C396.138 460.513 396.593 460.434 397.111 460.434C397.471 460.434 397.816 460.476 398.145 460.561C398.477 460.645 398.771 460.776 399.027 460.953C399.286 461.13 399.49 461.358 399.639 461.637C399.788 461.912 399.862 462.243 399.862 462.628V467H398.157V466.101H398.107C398.003 466.304 397.864 466.482 397.689 466.637C397.515 466.789 397.305 466.909 397.06 466.996C396.816 467.08 396.533 467.122 396.212 467.122ZM396.727 465.882C396.991 465.882 397.225 465.83 397.427 465.726C397.63 465.619 397.789 465.475 397.904 465.295C398.02 465.115 398.077 464.911 398.077 464.683V463.996C398.021 464.032 397.944 464.066 397.845 464.097C397.75 464.125 397.641 464.152 397.52 464.177C397.399 464.2 397.278 464.221 397.157 464.24C397.036 464.257 396.927 464.273 396.828 464.287C396.617 464.318 396.433 464.367 396.275 464.434C396.118 464.502 395.996 464.593 395.908 464.709C395.821 464.821 395.778 464.962 395.778 465.131C395.778 465.375 395.866 465.562 396.043 465.692C396.223 465.818 396.451 465.882 396.727 465.882ZM403.054 458.358V467H401.257V458.358H403.054ZM407.448 467.127C406.782 467.127 406.208 466.992 405.727 466.721C405.248 466.449 404.88 466.063 404.621 465.565C404.362 465.065 404.233 464.472 404.233 463.789C404.233 463.122 404.362 462.537 404.621 462.033C404.88 461.53 405.244 461.137 405.714 460.856C406.187 460.575 406.741 460.434 407.377 460.434C407.804 460.434 408.202 460.503 408.571 460.641C408.942 460.776 409.266 460.98 409.541 461.253C409.82 461.526 410.036 461.869 410.191 462.282C410.346 462.693 410.423 463.174 410.423 463.725V464.219H404.95V463.105H408.731C408.731 462.846 408.675 462.617 408.562 462.417C408.45 462.218 408.294 462.062 408.094 461.949C407.897 461.834 407.668 461.776 407.406 461.776C407.133 461.776 406.891 461.839 406.68 461.966C406.472 462.09 406.309 462.257 406.191 462.468C406.073 462.676 406.012 462.908 406.009 463.164V464.223C406.009 464.544 406.068 464.821 406.187 465.055C406.308 465.288 406.478 465.468 406.697 465.595C406.917 465.721 407.177 465.785 407.478 465.785C407.678 465.785 407.86 465.757 408.026 465.7C408.192 465.644 408.334 465.56 408.453 465.447C408.571 465.335 408.661 465.197 408.723 465.034L410.385 465.143C410.301 465.543 410.128 465.892 409.866 466.19C409.607 466.485 409.273 466.716 408.862 466.882C408.454 467.045 407.983 467.127 407.448 467.127ZM380.574 471.286V470.358H387.055V471.286H384.338V479H383.291V471.286H380.574ZM388.015 479H386.918L390.091 470.358H391.172L394.345 479H393.248L390.665 471.725H390.598L388.015 479ZM388.42 475.624H392.843V476.553H388.42V475.624ZM395.691 479V470.358H396.738V478.072H400.755V479H395.691ZM402.375 479V470.358H407.591V471.286H403.422V474.206H407.321V475.135H403.422V478.072H407.658V479H402.375ZM416.33 470.358V479H415.317L410.608 472.215H410.523V479H409.477V470.358H410.49L415.216 477.16H415.3V470.358H416.33ZM417.951 471.286V470.358H424.433V471.286H421.715V479H420.669V471.286H417.951Z" fill="#212121"></path><path d="M901.11 666.367L899.464 666.468C899.436 666.327 899.376 666.201 899.283 666.088C899.19 665.973 899.068 665.881 898.916 665.814C898.767 665.744 898.588 665.708 898.38 665.708C898.101 665.708 897.867 665.768 897.675 665.886C897.484 666.001 897.388 666.156 897.388 666.35C897.388 666.505 897.45 666.635 897.574 666.742C897.698 666.849 897.91 666.935 898.211 667L899.384 667.236C900.014 667.365 900.484 667.574 900.794 667.861C901.103 668.147 901.258 668.524 901.258 668.991C901.258 669.416 901.133 669.789 900.882 670.11C900.635 670.43 900.294 670.681 899.861 670.861C899.431 671.038 898.934 671.127 898.372 671.127C897.514 671.127 896.83 670.948 896.321 670.591C895.814 670.231 895.518 669.741 895.43 669.122L897.198 669.029C897.252 669.291 897.381 669.491 897.587 669.629C897.792 669.764 898.055 669.831 898.376 669.831C898.691 669.831 898.944 669.771 899.135 669.65C899.329 669.526 899.428 669.367 899.431 669.173C899.428 669.01 899.359 668.876 899.224 668.772C899.089 668.665 898.881 668.584 898.599 668.527L897.477 668.304C896.844 668.177 896.373 667.958 896.063 667.645C895.757 667.333 895.603 666.935 895.603 666.451C895.603 666.035 895.716 665.676 895.941 665.375C896.169 665.074 896.488 664.842 896.899 664.679C897.312 664.516 897.796 664.434 898.35 664.434C899.169 664.434 899.813 664.607 900.283 664.953C900.756 665.299 901.031 665.77 901.11 666.367ZM905.318 671.127C904.654 671.127 904.083 670.986 903.605 670.705C903.13 670.42 902.764 670.027 902.508 669.523C902.255 669.02 902.128 668.44 902.128 667.785C902.128 667.121 902.256 666.538 902.512 666.038C902.771 665.534 903.138 665.142 903.614 664.86C904.089 664.576 904.654 664.434 905.31 664.434C905.875 664.434 906.37 664.537 906.795 664.742C907.22 664.948 907.556 665.236 907.804 665.607C908.051 665.979 908.188 666.415 908.213 666.915H906.517C906.469 666.592 906.342 666.332 906.137 666.135C905.934 665.935 905.669 665.835 905.339 665.835C905.061 665.835 904.818 665.911 904.609 666.063C904.404 666.212 904.244 666.43 904.128 666.717C904.013 667.004 903.955 667.351 903.955 667.759C903.955 668.173 904.012 668.524 904.124 668.814C904.239 669.104 904.401 669.325 904.609 669.477C904.818 669.629 905.061 669.705 905.339 669.705C905.545 669.705 905.729 669.662 905.892 669.578C906.058 669.494 906.195 669.371 906.301 669.211C906.411 669.048 906.483 668.852 906.517 668.624H908.213C908.185 669.119 908.05 669.555 907.808 669.932C907.569 670.307 907.238 670.599 906.816 670.81C906.394 671.021 905.895 671.127 905.318 671.127ZM911.212 671.122C910.799 671.122 910.43 671.051 910.107 670.907C909.783 670.761 909.527 670.546 909.339 670.262C909.153 669.975 909.06 669.617 909.06 669.19C909.06 668.83 909.126 668.527 909.258 668.282C909.391 668.038 909.571 667.841 909.799 667.692C910.026 667.543 910.285 667.43 910.575 667.354C910.868 667.278 911.174 667.225 911.495 667.194C911.872 667.154 912.176 667.118 912.406 667.084C912.637 667.048 912.804 666.994 912.909 666.924C913.013 666.853 913.065 666.749 913.065 666.611V666.586C913.065 666.319 912.98 666.112 912.811 665.966C912.645 665.82 912.409 665.746 912.103 665.746C911.779 665.746 911.522 665.818 911.33 665.962C911.139 666.102 911.012 666.28 910.951 666.493L909.288 666.358C909.372 665.964 909.538 665.624 909.786 665.337C910.033 665.047 910.353 664.825 910.744 664.67C911.138 664.513 911.593 664.434 912.111 664.434C912.471 664.434 912.816 664.476 913.145 664.561C913.477 664.645 913.771 664.776 914.027 664.953C914.286 665.13 914.49 665.358 914.639 665.637C914.788 665.912 914.862 666.243 914.862 666.628V671H913.157V670.101H913.107C913.003 670.304 912.864 670.482 912.689 670.637C912.515 670.789 912.305 670.909 912.06 670.996C911.816 671.08 911.533 671.122 911.212 671.122ZM911.727 669.882C911.991 669.882 912.225 669.83 912.427 669.726C912.63 669.619 912.789 669.475 912.904 669.295C913.02 669.115 913.077 668.911 913.077 668.683V667.996C913.021 668.032 912.944 668.066 912.845 668.097C912.75 668.125 912.641 668.152 912.52 668.177C912.399 668.2 912.278 668.221 912.157 668.24C912.036 668.257 911.927 668.273 911.828 668.287C911.617 668.318 911.433 668.367 911.275 668.434C911.118 668.502 910.996 668.593 910.908 668.709C910.821 668.821 910.778 668.962 910.778 669.131C910.778 669.375 910.866 669.562 911.043 669.692C911.223 669.818 911.451 669.882 911.727 669.882ZM918.054 662.358V671H916.257V662.358H918.054ZM922.448 671.127C921.782 671.127 921.208 670.992 920.727 670.721C920.248 670.449 919.88 670.063 919.621 669.565C919.362 669.065 919.233 668.472 919.233 667.789C919.233 667.122 919.362 666.537 919.621 666.033C919.88 665.53 920.244 665.137 920.714 664.856C921.187 664.575 921.741 664.434 922.377 664.434C922.804 664.434 923.202 664.503 923.571 664.641C923.942 664.776 924.266 664.98 924.541 665.253C924.82 665.526 925.036 665.869 925.191 666.282C925.346 666.693 925.423 667.174 925.423 667.725V668.219H919.95V667.105H923.731C923.731 666.846 923.675 666.617 923.562 666.417C923.45 666.218 923.294 666.062 923.094 665.949C922.897 665.834 922.668 665.776 922.406 665.776C922.133 665.776 921.891 665.839 921.68 665.966C921.472 666.09 921.309 666.257 921.191 666.468C921.073 666.676 921.012 666.908 921.009 667.164V668.223C921.009 668.544 921.068 668.821 921.187 669.055C921.308 669.288 921.478 669.468 921.697 669.595C921.917 669.721 922.177 669.785 922.478 669.785C922.678 669.785 922.86 669.757 923.026 669.7C923.192 669.644 923.334 669.56 923.453 669.447C923.571 669.335 923.661 669.197 923.723 669.034L925.385 669.143C925.301 669.543 925.128 669.892 924.866 670.19C924.607 670.485 924.273 670.716 923.862 670.882C923.454 671.045 922.983 671.127 922.448 671.127ZM903.001 677.059H901.954C901.892 676.758 901.784 676.493 901.629 676.265C901.477 676.037 901.292 675.846 901.072 675.691C900.856 675.534 900.615 675.416 900.351 675.337C900.086 675.258 899.81 675.219 899.524 675.219C899 675.219 898.526 675.351 898.101 675.615C897.68 675.88 897.343 676.27 897.093 676.784C896.845 677.299 896.722 677.931 896.722 678.679C896.722 679.427 896.845 680.059 897.093 680.574C897.343 681.088 897.68 681.478 898.101 681.743C898.526 682.007 899 682.139 899.524 682.139C899.81 682.139 900.086 682.1 900.351 682.021C900.615 681.942 900.856 681.826 901.072 681.671C901.292 681.513 901.477 681.321 901.629 681.093C901.784 680.862 901.892 680.598 901.954 680.299H903.001C902.922 680.741 902.778 681.136 902.57 681.485C902.362 681.834 902.103 682.131 901.794 682.375C901.484 682.617 901.137 682.802 900.751 682.928C900.369 683.055 899.96 683.118 899.524 683.118C898.787 683.118 898.131 682.938 897.557 682.578C896.983 682.218 896.532 681.706 896.203 681.042C895.873 680.378 895.709 679.59 895.709 678.679C895.709 677.768 895.873 676.98 896.203 676.316C896.532 675.652 896.983 675.14 897.557 674.78C898.131 674.42 898.787 674.24 899.524 674.24C899.96 674.24 900.369 674.303 900.751 674.43C901.137 674.556 901.484 674.742 901.794 674.987C902.103 675.229 902.362 675.524 902.57 675.873C902.778 676.219 902.922 676.614 903.001 677.059ZM904.692 683V674.358H905.738V682.072H909.755V683H904.692ZM918.331 678.679C918.331 679.59 918.166 680.378 917.837 681.042C917.508 681.706 917.057 682.218 916.483 682.578C915.909 682.938 915.253 683.118 914.516 683.118C913.779 683.118 913.124 682.938 912.55 682.578C911.976 682.218 911.524 681.706 911.195 681.042C910.866 680.378 910.702 679.59 910.702 678.679C910.702 677.768 910.866 676.98 911.195 676.316C911.524 675.652 911.976 675.14 912.55 674.78C913.124 674.42 913.779 674.24 914.516 674.24C915.253 674.24 915.909 674.42 916.483 674.78C917.057 675.14 917.508 675.652 917.837 676.316C918.166 676.98 918.331 677.768 918.331 678.679ZM917.318 678.679C917.318 677.931 917.193 677.299 916.943 676.784C916.695 676.27 916.359 675.88 915.934 675.615C915.512 675.351 915.039 675.219 914.516 675.219C913.993 675.219 913.519 675.351 913.094 675.615C912.672 675.88 912.336 676.27 912.086 676.784C911.838 677.299 911.714 677.931 911.714 678.679C911.714 679.427 911.838 680.059 912.086 680.574C912.336 681.088 912.672 681.478 913.094 681.743C913.519 682.007 913.993 682.139 914.516 682.139C915.039 682.139 915.512 682.007 915.934 681.743C916.359 681.478 916.695 681.088 916.943 680.574C917.193 680.059 917.318 679.427 917.318 678.679ZM925.762 674.358H926.808V680.08C926.808 680.671 926.669 681.198 926.391 681.662C926.115 682.124 925.725 682.488 925.222 682.755C924.718 683.02 924.127 683.152 923.449 683.152C922.771 683.152 922.181 683.02 921.677 682.755C921.174 682.488 920.783 682.124 920.504 681.662C920.228 681.198 920.09 680.671 920.09 680.08V674.358H921.137V679.996C921.137 680.418 921.23 680.793 921.415 681.122C921.601 681.449 921.866 681.706 922.209 681.894C922.555 682.08 922.968 682.173 923.449 682.173C923.93 682.173 924.344 682.08 924.69 681.894C925.036 681.706 925.3 681.449 925.483 681.122C925.669 680.793 925.762 680.418 925.762 679.996V674.358ZM931.565 683H928.898V674.358H931.683C932.521 674.358 933.239 674.531 933.835 674.877C934.432 675.22 934.889 675.714 935.207 676.358C935.524 677 935.683 677.768 935.683 678.662C935.683 679.562 935.523 680.337 935.202 680.987C934.882 681.634 934.415 682.132 933.801 682.481C933.188 682.827 932.443 683 931.565 683ZM929.945 682.072H931.497C932.212 682.072 932.804 681.934 933.274 681.658C933.744 681.382 934.094 680.99 934.325 680.481C934.555 679.972 934.671 679.365 934.671 678.662C934.671 677.964 934.557 677.364 934.329 676.86C934.101 676.354 933.761 675.966 933.308 675.696C932.855 675.423 932.291 675.286 931.616 675.286H929.945V682.072Z" fill="#212121"></path><path d="M403.203 671.046C407.271 673.134 410.514 676.65 412.944 681.546C412.975 681.607 413.289 682.224 413.354 682.353C414.048 683.749 414.389 684.681 414.606 685.592L412.387 690.078C411.253 692.371 407.858 691.931 407.344 689.425L405.978 682.762C405.713 681.466 404.545 680.554 403.223 680.615L391.062 681.191C388.002 681.334 387.139 677.06 390.008 675.985L403.203 671.046Z" fill="#7309DD"></path><path d="M421.307 664.79C422.824 665.2 423.831 666.955 423.021 668.593L415.807 683.168C415.584 682.64 415.394 682.158 415.066 681.498C415 681.366 414.698 680.754 414.669 680.694C412.366 676.054 409.354 672.494 405.598 670.144L419.668 664.877C420.238 664.663 420.802 664.653 421.307 664.79Z" fill="#7309DD"></path><path d="M395.088 663.665C397.272 664.25 398.57 666.497 397.985 668.68C397.399 670.864 395.153 672.157 392.969 671.571C390.785 670.986 389.491 668.745 390.076 666.561C390.661 664.378 392.904 663.079 395.088 663.665Z" fill="#7309DD"></path><path d="M412.742 657.035C414.926 657.62 416.22 659.862 415.635 662.046C415.05 664.229 412.807 665.527 410.623 664.942C408.439 664.357 407.141 662.11 407.727 659.927C408.312 657.743 410.558 656.45 412.742 657.035Z" fill="#7309DD"></path><path d="M1020.78 154.301C1024.85 156.389 1028.1 159.905 1030.53 164.801C1030.56 164.862 1030.87 165.479 1030.93 165.608C1031.63 167.004 1031.97 167.936 1032.19 168.847L1029.97 173.333C1028.83 175.627 1025.44 175.186 1024.93 172.68L1023.56 166.017C1023.29 164.721 1022.13 163.809 1020.8 163.87L1008.64 164.447C1005.58 164.589 1004.72 160.315 1007.59 159.241L1020.78 154.301Z" fill="#7309DD"></path><path d="M1038.89 148.045C1040.4 148.456 1041.41 150.21 1040.6 151.848L1033.39 166.423C1033.16 165.895 1032.97 165.413 1032.65 164.753C1032.58 164.621 1032.28 164.009 1032.25 163.949C1029.95 159.309 1026.94 155.749 1023.18 153.399L1037.25 148.132C1037.82 147.918 1038.38 147.908 1038.89 148.045Z" fill="#7309DD"></path><path d="M1012.67 146.92C1014.85 147.505 1016.15 149.752 1015.57 151.935C1014.98 154.119 1012.73 155.412 1010.55 154.827C1008.37 154.241 1007.07 152 1007.66 149.816C1008.24 147.633 1010.49 146.334 1012.67 146.92Z" fill="#7309DD"></path><path d="M1030.32 140.29C1032.51 140.876 1033.8 143.117 1033.22 145.301C1032.63 147.484 1030.39 148.783 1028.2 148.197C1026.02 147.612 1024.72 145.365 1025.31 143.182C1025.89 140.998 1028.14 139.705 1030.32 140.29Z" fill="#7309DD"></path></g><rect x="250.938" y="210.417" width="101.236" height="100.985" rx="27.097" fill="white"></rect><rect x="1178.32" y="210.417" width="101.236" height="100.985" rx="27.097" fill="white"></rect><rect x="250.938" y="107.438" width="101.236" height="100.985" rx="27.097" fill="white"></rect><rect x="1178.32" y="107.438" width="101.236" height="100.985" rx="27.097" fill="white"></rect><rect x="250.938" y="622.337" width="101.236" height="100.985" rx="27.097" fill="white"></rect><rect x="1178.32" y="622.337" width="101.236" height="100.985" rx="27.097" fill="white"></rect><rect x="250.938" y="416.377" width="101.236" height="100.985" rx="27.097" fill="white"></rect><rect x="1178.32" y="416.377" width="101.236" height="100.985" rx="27.097" fill="white"></rect><rect x="250.938" y="313.398" width="101.236" height="100.985" rx="27.097" fill="white"></rect><rect x="1178.32" y="313.398" width="101.236" height="100.985" rx="27.097" fill="white"></rect><rect x="250.938" y="519.357" width="101.236" height="100.985" rx="27.097" fill="white"></rect><rect x="1178.32" y="519.357" width="101.236" height="100.985" rx="27.097" fill="white"></rect><defs><clipPath id="clip0_507_1375"><rect width="821.745" height="679.38" fill="white" transform="translate(354.584 75.6892)"></rect></clipPath></defs></svg>